a0000-p0000.ufo
<glyph name="numbersign" format="1">
  <advance width="462"/>
  <unicode hex="0023"/>
  <outline>
    <contour>
      <point x="103" y="0" type="line"/>
      <point x="138" y="0" type="line"/>
      <point x="198" y="740" type="line"/>
      <point x="164" y="740" type="line"/>
    </contour>
    <contour>
      <point x="45" y="246" type="line"/>
      <point x="416" y="246" type="line"/>
      <point x="416" y="280" type="line"/>
      <point x="45" y="280" type="line"/>
    </contour>
    <contour>
      <point x="45" y="460" type="line"/>
      <point x="417" y="460" type="line"/>
      <point x="417" y="494" type="line"/>
      <point x="45" y="494" type="line"/>
    </contour>
    <contour>
      <point x="250" y="0" type="line"/>
      <point x="285" y="0" type="line"/>
      <point x="345" y="740" type="line"/>
      <point x="311" y="740" type="line"/>
    </contour>
  </outline>
</glyph>
<glyph name="dollar" format="1">
  <advance width="453"/>
  <unicode hex="0024"/>
  <outline>
    <contour>
      <point x="233" y="-150" type="line"/>
      <point x="264" y="-150" type="line"/>
      <point x="264" y="6" type="line"/>
      <point x="233" y="4" type="line"/>
    </contour>
    <contour>
      <point x="227" y="733" type="line"/>
      <point x="258" y="733" type="line"/>
      <point x="258" y="890" type="line"/>
      <point x="227" y="890" type="line"/>
    </contour>
    <component base="S" xOffset="1"/>
  </outline>
</glyph>
<glyph name="ampersand" format="1">
  <advance width="570"/>
  <unicode hex="0026"/>
  <outline>
    <contour>
      <point x="527" y="105" type="line"/>
      <point x="533" y="105" type="line"/>
      <point x="548" y="126" type="line"/>
      <point x="548" y="132" type="line"/>
      <point x="335" y="277" type="line"/>
      <point x="199" y="367"/>
      <point x="150" y="442"/>
      <point x="150" y="557" type="curve" smooth="yes"/>
      <point x="150" y="664"/>
      <point x="197" y="719"/>
      <point x="287" y="719" type="curve" smooth="yes"/>
      <point x="324" y="719"/>
      <point x="360" y="709"/>
      <point x="411" y="684" type="curve"/>
      <point x="416" y="684" type="line"/>
      <point x="427" y="708" type="line"/>
      <point x="427" y="714" type="line"/>
      <point x="371" y="741"/>
      <point x="328" y="753"/>
      <point x="287" y="753" type="curve" smooth="yes"/>
      <point x="175" y="753"/>
      <point x="116" y="686"/>
      <point x="116" y="557" type="curve" smooth="yes"/>
      <point x="116" y="424"/>
      <point x="162" y="353"/>
      <point x="315" y="249" type="curve" smooth="yes"/>
    </contour>
    <contour>
      <point x="254" y="-12" type="curve" smooth="yes"/>
      <point x="419" y="-12"/>
      <point x="497" y="101"/>
      <point x="497" y="342" type="curve" smooth="yes"/>
      <point x="497" y="407" type="line"/>
      <point x="463" y="407" type="line"/>
      <point x="463" y="342" type="line" smooth="yes"/>
      <point x="463" y="126"/>
      <point x="395" y="22"/>
      <point x="254" y="22" type="curve" smooth="yes"/>
      <point x="146" y="22"/>
      <point x="80" y="92"/>
      <point x="80" y="206" type="curve" smooth="yes"/>
      <point x="80" y="288"/>
      <point x="113" y="345"/>
      <point x="181" y="379" type="curve"/>
      <point x="168" y="424" type="line"/>
      <point x="167" y="409" type="line"/>
      <point x="86" y="371"/>
      <point x="46" y="304"/>
      <point x="46" y="206" type="curve" smooth="yes"/>
      <point x="46" y="70"/>
      <point x="124" y="-12"/>
    </contour>
  </outline>
</glyph>
<glyph name="parenleft" format="1">
  <advance width="248"/>
  <unicode hex="0028"/>
  <outline>
    <contour>
      <point x="195" y="-160" type="curve"/>
      <point x="227" y="-160" type="line"/>
      <point x="227" y="-156" type="line"/>
      <point x="130" y="-13"/>
      <point x="78" y="164"/>
      <point x="78" y="354" type="curve" smooth="yes"/>
      <point x="78" y="543"/>
      <point x="130" y="721"/>
      <point x="227" y="864" type="curve"/>
      <point x="227" y="868" type="line"/>
      <point x="195" y="868" type="line"/>
      <point x="96" y="722"/>
      <point x="42" y="541"/>
      <point x="42" y="354" type="curve" smooth="yes"/>
      <point x="42" y="167"/>
      <point x="96" y="-14"/>
    </contour>
  </outline>
</glyph>
<glyph name="period" format="1">
  <advance width="180"/>
  <unicode hex="002E"/>
  <outline>
    <contour>
      <point x="90" y="-1" type="curve" smooth="yes"/>
      <point x="109" y="-1"/>
      <point x="122" y="11"/>
      <point x="122" y="30" type="curve" smooth="yes"/>
      <point x="122" y="49"/>
      <point x="109" y="62"/>
      <point x="90" y="62" type="curve" smooth="yes"/>
      <point x="71" y="62"/>
      <point x="59" y="50"/>
      <point x="59" y="30" type="curve" smooth="yes"/>
      <point x="59" y="11"/>
      <point x="71" y="-1"/>
    </contour>
  </outline>
</glyph>
<glyph name="slash" format="1">
  <advance width="261"/>
  <unicode hex="002F"/>
  <outline>
    <contour>
      <point x="33" y="-121" type="line"/>
      <point x="68" y="-121" type="line"/>
      <point x="228" y="740" type="line"/>
      <point x="193" y="740" type="line"/>
    </contour>
  </outline>
</glyph>
<glyph name="seven" format="1">
  <advance width="334"/>
  <unicode hex="0037"/>
  <outline>
    <contour>
      <point x="87" y="-9" type="line"/>
      <point x="63" y="0" type="line"/>
      <point x="63" y="11" type="line"/>
      <point x="294" y="736" type="line"/>
      <point x="295" y="706" type="line"/>
      <point x="31" y="706" type="line"/>
      <point x="26" y="736" type="line"/>
      <point x="26" y="740" type="line"/>
      <point x="304" y="740" type="line"/>
      <point x="313" y="722" type="line"/>
      <point x="313" y="693" type="line"/>
      <point x="95" y="-2" type="line"/>
    </contour>
  </outline>
</glyph>
<glyph name="eight" format="1">
  <advance width="469"/>
  <unicode hex="0038"/>
  <outline>
    <contour>
      <point x="235" y="-3" type="curve" smooth="yes"/>
      <point x="347" y="-3"/>
      <point x="420" y="69"/>
      <point x="420" y="182" type="curve" smooth="yes"/>
      <point x="420" y="293"/>
      <point x="372" y="352"/>
      <point x="248" y="391" type="curve" smooth="yes"/>
      <point x="142" y="424"/>
      <point x="101" y="472"/>
      <point x="101" y="565" type="curve" smooth="yes"/>
      <point x="101" y="659"/>
      <point x="151" y="715"/>
      <point x="235" y="715" type="curve" smooth="yes"/>
      <point x="319" y="715"/>
      <point x="368" y="660"/>
      <point x="368" y="565" type="curve" smooth="yes"/>
      <point x="368" y="468"/>
      <point x="332" y="418"/>
      <point x="241" y="386" type="curve"/>
      <point x="278" y="365" type="line"/>
      <point x="364" y="396"/>
      <point x="402" y="457"/>
      <point x="402" y="565" type="curve" smooth="yes"/>
      <point x="402" y="682"/>
      <point x="341" y="749"/>
      <point x="235" y="749" type="curve" smooth="yes"/>
      <point x="129" y="749"/>
      <point x="67" y="681"/>
      <point x="67" y="565" type="curve" smooth="yes"/>
      <point x="67" y="455"/>
      <point x="119" y="393"/>
      <point x="238" y="359" type="curve" smooth="yes"/>
      <point x="350" y="327"/>
      <point x="386" y="282"/>
      <point x="386" y="182" type="curve" smooth="yes"/>
      <point x="386" y="91"/>
      <point x="325" y="31"/>
      <point x="235" y="31" type="curve" smooth="yes"/>
      <point x="145" y="31"/>
      <point x="83" y="92"/>
      <point x="83" y="182" type="curve" smooth="yes"/>
      <point x="83" y="285"/>
      <point x="117" y="333"/>
      <point x="220" y="375" type="curve"/>
      <point x="191" y="394" type="line"/>
      <point x="92" y="356"/>
      <point x="49" y="291"/>
      <point x="49" y="182" type="curve" smooth="yes"/>
      <point x="49" y="70"/>
      <point x="123" y="-3"/>
    </contour>
  </outline>
</glyph>
<glyph name="equal" format="1">
  <advance width="489"/>
  <unicode hex="003D"/>
  <outline>
    <contour>
      <point x="63" y="236" type="line"/>
      <point x="427" y="236" type="line"/>
      <point x="427" y="270" type="line"/>
      <point x="63" y="270" type="line"/>
    </contour>
    <contour>
      <point x="63" y="447" type="line"/>
      <point x="427" y="447" type="line"/>
      <point x="427" y="481" type="line"/>
      <point x="63" y="481" type="line"/>
    </contour>
  </outline>
</glyph>
<glyph name="C" format="1">
  <advance width="482"/>
  <unicode hex="0043"/>
  <outline>
    <contour>
      <point x="302" y="760" type="move" name="topUC"/>
    </contour>
    <contour>
      <point x="297" y="0" type="move" name="bottom"/>
    </contour>
    <contour>
      <point x="354" y="-10" type="curve" smooth="yes"/>
      <point x="396" y="-10"/>
      <point x="418" y="-8"/>
      <point x="448" y="-2" type="curve"/>
      <point x="448" y="31" type="line"/>
      <point x="415" y="27"/>
      <point x="367" y="24"/>
      <point x="351" y="24" type="curve" smooth="yes"/>
      <point x="166" y="24"/>
      <point x="85" y="129"/>
      <point x="85" y="369" type="curve" smooth="yes"/>
      <point x="85" y="620"/>
      <point x="159" y="714"/>
      <point x="356" y="714" type="curve" smooth="yes"/>
      <point x="392" y="714"/>
      <point x="429" y="711"/>
      <point x="448" y="707" type="curve"/>
      <point x="448" y="741" type="line"/>
      <point x="412" y="746"/>
      <point x="379" y="748"/>
      <point x="352" y="748" type="curve" smooth="yes"/>
      <point x="133" y="748"/>
      <point x="49" y="643"/>
      <point x="49" y="369" type="curve" smooth="yes"/>
      <point x="49" y="104"/>
      <point x="138" y="-7"/>
    </contour>
  </outline>
</glyph>
<glyph name="D" format="1">
  <advance width="561"/>
  <unicode hex="0044"/>
  <outline>
    <contour>
      <point x="249" y="760" type="move" name="topUC"/>
    </contour>
    <contour>
      <point x="254" y="0" type="move" name="bottom"/>
    </contour>
    <contour>
      <point x="182" y="-18" type="curve" smooth="yes"/>
      <point x="410" y="-18"/>
      <point x="513" y="103"/>
      <point x="513" y="369" type="curve" smooth="yes"/>
      <point x="513" y="627"/>
      <point x="420" y="750"/>
      <point x="225" y="750" type="curve" smooth="yes"/>
      <point x="185" y="750"/>
      <point x="139" y="744"/>
      <point x="81" y="732" type="curve"/>
      <point x="81" y="-11" type="line"/>
      <point x="115" y="-16"/>
      <point x="148" y="-18"/>
    </contour>
    <contour>
      <point x="185" y="17" type="curve" smooth="yes"/>
      <point x="165" y="17"/>
      <point x="142" y="19"/>
      <point x="115" y="22" type="curve"/>
      <point x="115" y="706" type="line"/>
      <point x="151" y="713"/>
      <point x="186" y="716"/>
      <point x="220" y="716" type="curve" smooth="yes"/>
      <point x="396" y="716"/>
      <point x="477" y="607"/>
      <point x="477" y="369" type="curve" smooth="yes"/>
      <point x="477" y="135"/>
      <point x="379" y="17"/>
    </contour>
  </outline>
</glyph>
<glyph name="E" format="1">
  <advance width="487"/>
  <unicode hex="0045"/>
  <outline>
    <contour>
      <point x="448" y="0" type="move" name="ogonek"/>
    </contour>
    <contour>
      <point x="257" y="760" type="move" name="topUC"/>
    </contour>
    <contour>
      <point x="277" y="0" type="move" name="bottom"/>
    </contour>
    <contour>
      <point x="81" y="0" type="line"/>
      <point x="448" y="0" type="line"/>
      <point x="448" y="34" type="line"/>
      <point x="115" y="34" type="line"/>
      <point x="115" y="706" type="line"/>
      <point x="439" y="706" type="line"/>
      <point x="439" y="740" type="line"/>
      <point x="81" y="740" type="line"/>
    </contour>
    <contour>
      <point x="111" y="359" type="line"/>
      <point x="406" y="359" type="line"/>
      <point x="406" y="393" type="line"/>
      <point x="111" y="393" type="line"/>
    </contour>
  </outline>
</glyph>
<glyph name="J" format="1">
  <advance width="196"/>
  <unicode hex="004A"/>
  <outline>
    <contour>
      <point x="95" y="760" type="move" name="topUC"/>
    </contour>
    <contour>
      <point x="22" y="-175" type="line"/>
      <point x="87" y="-54"/>
      <point x="117" y="57"/>
      <point x="117" y="180" type="curve" smooth="yes"/>
      <point x="117" y="740" type="line"/>
      <point x="83" y="740" type="line"/>
      <point x="83" y="180" type="line" smooth="yes"/>
      <point x="83" y="50"/>
      <point x="67" y="-12"/>
      <point x="-2" y="-159" type="curve"/>
    </contour>
  </outline>
</glyph>
<glyph name="O" format="1">
  <advance width="586"/>
  <unicode hex="004F"/>
  <outline>
    <contour>
      <point x="293" y="-10" type="move" name="ogonek"/>
    </contour>
    <contour>
      <point x="293" y="760" type="move" name="topUC"/>
    </contour>
    <contour>
      <point x="293" y="0" type="move" name="bottom"/>
    </contour>
    <contour>
      <point x="293" y="-10" type="curve" smooth="yes"/>
      <point x="455" y="-10"/>
      <point x="537" y="117"/>
      <point x="537" y="369" type="curve" smooth="yes"/>
      <point x="537" y="624"/>
      <point x="456" y="750"/>
      <point x="293" y="750" type="curve" smooth="yes"/>
      <point x="129" y="750"/>
      <point x="49" y="625"/>
      <point x="49" y="369" type="curve" smooth="yes"/>
      <point x="49" y="115"/>
      <point x="129" y="-10"/>
    </contour>
    <contour>
      <point x="293" y="24" type="curve" smooth="yes"/>
      <point x="147" y="24"/>
      <point x="83" y="129"/>
      <point x="83" y="369" type="curve" smooth="yes"/>
      <point x="83" y="609"/>
      <point x="148" y="716"/>
      <point x="293" y="716" type="curve" smooth="yes"/>
      <point x="435" y="716"/>
      <point x="503" y="604"/>
      <point x="503" y="369" type="curve" smooth="yes"/>
      <point x="503" y="131"/>
      <point x="438" y="24"/>
    </contour>
  </outline>
</glyph>
<glyph name="P" format="1">
  <advance width="498"/>
  <unicode hex="0050"/>
  <outline>
    <contour>
      <point x="205" y="252" type="curve" smooth="yes"/>
      <point x="384" y="252"/>
      <point x="464" y="329"/>
      <point x="464" y="503" type="curve" smooth="yes"/>
      <point x="464" y="674"/>
      <point x="387" y="752"/>
      <point x="221" y="752" type="curve" smooth="yes"/>
      <point x="179" y="752"/>
      <point x="134" y="746"/>
      <point x="81" y="735" type="curve"/>
      <point x="81" y="262" type="line"/>
      <point x="128" y="255"/>
      <point x="169" y="252"/>
    </contour>
    <contour>
      <point x="216" y="286" type="curve" smooth="yes"/>
      <point x="184" y="286"/>
      <point x="150" y="289"/>
      <point x="115" y="293" type="curve"/>
      <point x="115" y="707" type="line"/>
      <point x="157" y="714"/>
      <point x="195" y="718"/>
      <point x="227" y="718" type="curve" smooth="yes"/>
      <point x="365" y="718"/>
      <point x="430" y="650"/>
      <point x="430" y="503" type="curve" smooth="yes"/>
      <point x="430" y="354"/>
      <point x="362" y="286"/>
    </contour>
    <contour>
      <point x="81" y="0" type="line"/>
      <point x="115" y="0" type="line"/>
      <point x="115" y="684" type="line"/>
      <point x="81" y="684" type="line"/>
    </contour>
  </outline>
</glyph>
<glyph name="U" format="1">
  <advance width="618"/>
  <unicode hex="0055"/>
  <outline>
    <contour>
      <point x="309" y="-10" type="move" name="ogonek"/>
    </contour>
    <contour>
      <point x="309" y="760" type="move" name="topUC"/>
    </contour>
    <contour>
      <point x="310" y="0" type="move" name="bottom"/>
    </contour>
    <contour>
      <point x="309" y="-10" type="curve" smooth="yes"/>
      <point x="474" y="-10"/>
      <point x="543" y="80"/>
      <point x="543" y="292" type="curve" smooth="yes"/>
      <point x="543" y="740" type="line"/>
      <point x="509" y="740" type="line"/>
      <point x="509" y="290" type="line" smooth="yes"/>
      <point x="509" y="105"/>
      <point x="448" y="24"/>
      <point x="309" y="24" type="curve" smooth="yes"/>
      <point x="170" y="24"/>
      <point x="109" y="105"/>
      <point x="109" y="290" type="curve" smooth="yes"/>
      <point x="109" y="740" type="line"/>
      <point x="75" y="740" type="line"/>
      <point x="75" y="292" type="line" smooth="yes"/>
      <point x="75" y="80"/>
      <point x="144" y="-10"/>
    </contour>
  </outline>
</glyph>
<glyph name="asciicircum" format="1">
  <advance width="330"/>
  <unicode hex="005E"/>
  <outline>
    <contour>
      <point x="44" y="481" type="line"/>
      <point x="70" y="481" type="line"/>
      <point x="163" y="748" type="line"/>
      <point x="167" y="748" type="line"/>
      <point x="259" y="481" type="line"/>
      <point x="286" y="481" type="line"/>
      <point x="173" y="789" type="line"/>
      <point x="157" y="789" type="line"/>
    </contour>
  </outline>
</glyph>
<glyph name="grave" format="1">
  <advance width="204"/>
  <unicode hex="0060"/>
  <outline>
    <contour>
      <point x="128" y="600" type="move" name="_top"/>
    </contour>
    <contour>
      <point x="126" y="610" type="line"/>
      <point x="39" y="798" type="line"/>
      <point x="75" y="798" type="line"/>
      <point x="149" y="620" type="line"/>
    </contour>
  </outline>
</glyph>
<glyph name="e" format="1">
  <advance width="424"/>
  <unicode hex="0065"/>
  <outline>
    <contour>
      <point x="210" y="600" type="move" name="top"/>
    </contour>
    <contour>
      <point x="362" y="22" type="move" name="ogonek"/>
    </contour>
    <contour>
      <point x="225" y="0" type="move" name="bottom"/>
    </contour>
    <contour>
      <point x="239" y="-9" type="curve" smooth="yes"/>
      <point x="283" y="-9"/>
      <point x="326" y="2"/>
      <point x="362" y="22" type="curve"/>
      <point x="357" y="57" type="line"/>
      <point x="315" y="34"/>
      <point x="281" y="25"/>
      <point x="239" y="25" type="curve" smooth="yes"/>
      <point x="138" y="25"/>
      <point x="80" y="112"/>
      <point x="80" y="263" type="curve" smooth="yes"/>
      <point x="80" y="423"/>
      <point x="136" y="515"/>
      <point x="233" y="515" type="curve" smooth="yes"/>
      <point x="314" y="515"/>
      <point x="348" y="442"/>
      <point x="348" y="271" type="curve"/>
      <point x="356" y="290" type="line"/>
      <point x="66" y="290" type="line"/>
      <point x="66" y="256" type="line"/>
      <point x="380" y="256" type="line"/>
      <point x="383" y="277"/>
      <point x="384" y="295"/>
      <point x="384" y="327" type="curve" smooth="yes"/>
      <point x="384" y="470"/>
      <point x="330" y="549"/>
      <point x="233" y="549" type="curve" smooth="yes"/>
      <point x="111" y="549"/>
      <point x="44" y="446"/>
      <point x="44" y="258" type="curve" smooth="yes"/>
      <point x="44" y="90"/>
      <point x="116" y="-9"/>
    </contour>
  </outline>
</glyph>
<glyph name="g" format="1">
  <advance width="458"/>
  <unicode hex="0067"/>
  <outline>
    <contour>
      <point x="243" y="600" type="move" name="top"/>
    </contour>
    <contour>
      <point x="208" y="-220" type="curve" smooth="yes"/>
      <point x="337" y="-220"/>
      <point x="390" y="-138"/>
      <point x="390" y="58" type="curve" smooth="yes"/>
      <point x="390" y="529" type="line"/>
      <point x="345" y="544"/>
      <point x="309" y="549"/>
      <point x="257" y="549" type="curve" smooth="yes"/>
      <point x="123" y="549"/>
      <point x="44" y="445"/>
      <point x="44" y="271" type="curve" smooth="yes"/>
      <point x="44" y="82"/>
      <point x="101" y="-9"/>
      <point x="220" y="-9" type="curve" smooth="yes"/>
      <point x="276" y="-9"/>
      <point x="322" y="13"/>
      <point x="353" y="54" type="curve"/>
      <point x="357" y="54" type="line"/>
      <point x="357" y="35" type="line" smooth="yes"/>
      <point x="354" y="-123"/>
      <point x="311" y="-186"/>
      <point x="208" y="-186" type="curve" smooth="yes"/>
      <point x="168" y="-186"/>
      <point x="135" y="-179"/>
      <point x="95" y="-162" type="curve"/>
      <point x="91" y="-197" type="line"/>
      <point x="126" y="-212"/>
      <point x="165" y="-220"/>
    </contour>
    <contour>
      <point x="218" y="25" type="curve" smooth="yes"/>
      <point x="131" y="25"/>
      <point x="80" y="115"/>
      <point x="80" y="270" type="curve" smooth="yes"/>
      <point x="80" y="426"/>
      <point x="144" y="515"/>
      <point x="257" y="515" type="curve" smooth="yes"/>
      <point x="285" y="515"/>
      <point x="308" y="512"/>
      <point x="356" y="504" type="curve"/>
      <point x="356" y="110" type="line" smooth="yes"/>
      <point x="356" y="70"/>
      <point x="282" y="25"/>
    </contour>
  </outline>
</glyph>
<glyph name="j" format="1">
  <advance width="172"/>
  <unicode hex="006A"/>
  <outline>
    <contour>
      <point x="87" y="684" type="curve" smooth="yes"/>
      <point x="105" y="684"/>
      <point x="117" y="695"/>
      <point x="117" y="713" type="curve" smooth="yes"/>
      <point x="117" y="731"/>
      <point x="105" y="743"/>
      <point x="87" y="743" type="curve" smooth="yes"/>
      <point x="69" y="743"/>
      <point x="58" y="732"/>
      <point x="58" y="713" type="curve" smooth="yes"/>
      <point x="58" y="695"/>
      <point x="69" y="684"/>
    </contour>
    <contour>
      <point x="14" y="-220" type="line"/>
      <point x="72" y="-128"/>
      <point x="104" y="-18"/>
      <point x="104" y="93" type="curve" smooth="yes"/>
      <point x="104" y="540" type="line"/>
      <point x="70" y="540" type="line"/>
      <point x="70" y="110" type="line" smooth="yes"/>
      <point x="70" y="-15"/>
      <point x="45" y="-110"/>
      <point x="-10" y="-201" type="curve"/>
    </contour>
  </outline>
</glyph>
<glyph name="p" format="1">
  <advance width="459"/>
  <unicode hex="0070"/>
  <outline>
    <contour>
      <point x="69" y="-220" type="line"/>
      <point x="103" y="-220" type="line"/>
      <point x="103" y="1" type="line"/>
      <point x="134" y="-6"/>
      <point x="165" y="-10"/>
      <point x="193" y="-10" type="curve" smooth="yes"/>
      <point x="363" y="-10"/>
      <point x="415" y="136"/>
      <point x="415" y="279" type="curve" smooth="yes"/>
      <point x="415" y="456"/>
      <point x="356" y="549"/>
      <point x="242" y="549" type="curve" smooth="yes"/>
      <point x="187" y="549"/>
      <point x="139" y="525"/>
      <point x="107" y="486" type="curve"/>
      <point x="103" y="486" type="line"/>
      <point x="99" y="540" type="line"/>
      <point x="69" y="540" type="line"/>
    </contour>
    <contour>
      <point x="197" y="24" type="curve" smooth="yes"/>
      <point x="173" y="24"/>
      <point x="142" y="28"/>
      <point x="103" y="35" type="curve"/>
      <point x="103" y="430" type="line" smooth="yes"/>
      <point x="103" y="470"/>
      <point x="176" y="515"/>
      <point x="240" y="515" type="curve" smooth="yes"/>
      <point x="331" y="515"/>
      <point x="379" y="433"/>
      <point x="379" y="279" type="curve" smooth="yes"/>
      <point x="379" y="113"/>
      <point x="315" y="24"/>
    </contour>
  </outline>
</glyph>
<glyph name="v" format="1">
  <advance width="431"/>
  <unicode hex="0076"/>
  <outline>
    <contour>
      <point x="189" y="0" type="line"/>
      <point x="242" y="0" type="line"/>
      <point x="416" y="537" type="line"/>
      <point x="416" y="540" type="line"/>
      <point x="382" y="540" type="line"/>
      <point x="233" y="83" type="line"/>
      <point x="218" y="36" type="line"/>
      <point x="214" y="36" type="line"/>
      <point x="199" y="83" type="line"/>
      <point x="50" y="540" type="line"/>
      <point x="16" y="540" type="line"/>
      <point x="16" y="537" type="line"/>
    </contour>
  </outline>
</glyph>
<glyph name="w" format="1">
  <advance width="640"/>
  <unicode hex="0077"/>
  <outline>
    <contour>
      <point x="320" y="600" type="move" name="top"/>
    </contour>
    <contour>
      <point x="154" y="0" type="line"/>
      <point x="192" y="0" type="line"/>
      <point x="304" y="420" type="line"/>
      <point x="318" y="475" type="line"/>
      <point x="322" y="475" type="line"/>
      <point x="336" y="420" type="line"/>
      <point x="448" y="0" type="line"/>
      <point x="486" y="0" type="line"/>
      <point x="618" y="536" type="line"/>
      <point x="618" y="540" type="line"/>
      <point x="585" y="540" type="line"/>
      <point x="487" y="139" type="line"/>
      <point x="469" y="52" type="line"/>
      <point x="465" y="52" type="line"/>
      <point x="443" y="139" type="line"/>
      <point x="336" y="540" type="line"/>
      <point x="304" y="540" type="line"/>
      <point x="197" y="139" type="line"/>
      <point x="175" y="52" type="line"/>
      <point x="171" y="52" type="line"/>
      <point x="153" y="139" type="line"/>
      <point x="55" y="540" type="line"/>
      <point x="22" y="540" type="line"/>
      <point x="22" y="536" type="line"/>
    </contour>
  </outline>
</glyph>
<glyph name="x" format="1">
  <advance width="432"/>
  <unicode hex="0078"/>
  <outline>
    <contour>
      <point x="12" y="0" type="line"/>
      <point x="51" y="0" type="line"/>
      <point x="195" y="219" type="line"/>
      <point x="214" y="249" type="line"/>
      <point x="216" y="249" type="line"/>
      <point x="236" y="219" type="line"/>
      <point x="381" y="0" type="line"/>
      <point x="420" y="0" type="line"/>
      <point x="420" y="4" type="line"/>
      <point x="237" y="276" type="line"/>
      <point x="408" y="535" type="line"/>
      <point x="408" y="540" type="line"/>
      <point x="371" y="540" type="line"/>
      <point x="238" y="338" type="line"/>
      <point x="218" y="306" type="line"/>
      <point x="216" y="306" type="line"/>
      <point x="196" y="338" type="line"/>
      <point x="61" y="540" type="line"/>
      <point x="24" y="540" type="line"/>
      <point x="24" y="535" type="line"/>
      <point x="195" y="279" type="line"/>
      <point x="12" y="4" type="line"/>
    </contour>
  </outline>
</glyph>
<glyph name="y" format="1">
  <advance width="430"/>
  <unicode hex="0079"/>
  <outline>
    <contour>
      <point x="222" y="600" type="move" name="top"/>
    </contour>
    <contour>
      <point x="160" y="-220" type="line"/>
      <point x="415" y="537" type="line"/>
      <point x="415" y="540" type="line"/>
      <point x="381" y="540" type="line"/>
      <point x="232" y="102" type="line"/>
      <point x="217" y="47" type="line"/>
      <point x="215" y="47" type="line"/>
      <point x="200" y="102" type="line"/>
      <point x="50" y="540" type="line"/>
      <point x="16" y="540" type="line"/>
      <point x="16" y="537" type="line"/>
      <point x="199" y="2" type="line"/>
      <point x="127" y="-209" type="line"/>
      <point x="127" y="-213" type="line"/>
    </contour>
  </outline>
</glyph>
<glyph name="brokenbar" format="1">
  <advance width="174"/>
  <unicode hex="00A6"/>
  <outline>
    <contour>
      <point x="70" y="-220" type="line"/>
      <point x="104" y="-220" type="line"/>
      <point x="104" y="203" type="line"/>
      <point x="70" y="203" type="line"/>
    </contour>
    <contour>
      <point x="70" y="385" type="line"/>
      <point x="104" y="385" type="line"/>
      <point x="104" y="808" type="line"/>
      <point x="70" y="808" type="line"/>
    </contour>
  </outline>
</glyph>
<glyph name="section" format="1">
  <advance width="371"/>
  <unicode hex="00A7"/>
  <outline>
    <contour>
      <point x="179" y="-12" type="curve" smooth="yes"/>
      <point x="261" y="-12"/>
      <point x="320" y="51"/>
      <point x="320" y="138" type="curve" smooth="yes"/>
      <point x="320" y="182"/>
      <point x="311" y="213"/>
      <point x="291" y="238" type="curve"/>
      <point x="309" y="264"/>
      <point x="320" y="296"/>
      <point x="320" y="333" type="curve" smooth="yes"/>
      <point x="320" y="418"/>
      <point x="289" y="458"/>
      <point x="200" y="488" type="curve" smooth="yes"/>
      <point x="145" y="506"/>
      <point x="92" y="522"/>
      <point x="92" y="606" type="curve" smooth="yes"/>
      <point x="92" y="672"/>
      <point x="137" y="714"/>
      <point x="207" y="714" type="curve" smooth="yes"/>
      <point x="233" y="714"/>
      <point x="256" y="711"/>
      <point x="305" y="699" type="curve"/>
      <point x="305" y="733" type="line"/>
      <point x="253" y="745"/>
      <point x="234" y="748"/>
      <point x="205" y="748" type="curve" smooth="yes"/>
      <point x="116" y="748"/>
      <point x="58" y="692"/>
      <point x="58" y="606" type="curve" smooth="yes"/>
      <point x="58" y="557"/>
      <point x="70" y="526"/>
      <point x="89" y="505" type="curve"/>
      <point x="69" y="481"/>
      <point x="58" y="449"/>
      <point x="58" y="411" type="curve" smooth="yes"/>
      <point x="58" y="296"/>
      <point x="127" y="278"/>
      <point x="189" y="260" type="curve" smooth="yes"/>
      <point x="257" y="240"/>
      <point x="286" y="203"/>
      <point x="286" y="138" type="curve" smooth="yes"/>
      <point x="286" y="67"/>
      <point x="243" y="22"/>
      <point x="174" y="22" type="curve" smooth="yes"/>
      <point x="137" y="22"/>
      <point x="94" y="29"/>
      <point x="52" y="41" type="curve"/>
      <point x="52" y="7" type="line"/>
      <point x="114" y="-7"/>
      <point x="146" y="-12"/>
    </contour>
    <contour>
      <point x="267" y="261" type="curve"/>
      <point x="250" y="273"/>
      <point x="227" y="284"/>
      <point x="200" y="293" type="curve" smooth="yes"/>
      <point x="145" y="312"/>
      <point x="92" y="327"/>
      <point x="92" y="411" type="curve" smooth="yes"/>
      <point x="92" y="440"/>
      <point x="101" y="464"/>
      <point x="117" y="482" type="curve"/>
      <point x="139" y="469"/>
      <point x="164" y="462"/>
      <point x="189" y="455" type="curve" smooth="yes"/>
      <point x="257" y="435"/>
      <point x="286" y="398"/>
      <point x="286" y="333" type="curve" smooth="yes"/>
      <point x="286" y="304"/>
      <point x="279" y="280"/>
    </contour>
  </outline>
</glyph>
<glyph name="copyright" format="1">
  <advance width="836"/>
  <unicode hex="00A9"/>
  <outline>
    <contour>
      <point x="434" y="163" type="curve" smooth="yes"/>
      <point x="464" y="163"/>
      <point x="493" y="167"/>
      <point x="519" y="174" type="curve"/>
      <point x="519" y="207" type="line"/>
      <point x="492" y="202"/>
      <point x="463" y="197"/>
      <point x="435" y="197" type="curve" smooth="yes"/>
      <point x="349" y="197"/>
      <point x="287" y="251"/>
      <point x="287" y="365" type="curve" smooth="yes"/>
      <point x="287" y="480"/>
      <point x="346" y="537"/>
      <point x="436" y="537" type="curve" smooth="yes"/>
      <point x="464" y="537"/>
      <point x="493" y="533"/>
      <point x="517" y="528" type="curve"/>
      <point x="517" y="563" type="line"/>
      <point x="490" y="568"/>
      <point x="462" y="572"/>
      <point x="434" y="572" type="curve" smooth="yes"/>
      <point x="325" y="572"/>
      <point x="251" y="504"/>
      <point x="251" y="365" type="curve" smooth="yes"/>
      <point x="251" y="230"/>
      <point x="325" y="163"/>
    </contour>
    <contour>
      <point x="418" y="-11" type="curve" smooth="yes"/>
      <point x="641" y="-11"/>
      <point x="790" y="141"/>
      <point x="790" y="370" type="curve" smooth="yes"/>
      <point x="790" y="599"/>
      <point x="641" y="751"/>
      <point x="418" y="751" type="curve" smooth="yes"/>
      <point x="195" y="751"/>
      <point x="46" y="599"/>
      <point x="46" y="370" type="curve" smooth="yes"/>
      <point x="46" y="141"/>
      <point x="195" y="-11"/>
    </contour>
    <contour>
      <point x="418" y="23" type="curve" smooth="yes"/>
      <point x="215" y="23"/>
      <point x="80" y="161"/>
      <point x="80" y="370" type="curve" smooth="yes"/>
      <point x="80" y="579"/>
      <point x="215" y="717"/>
      <point x="418" y="717" type="curve" smooth="yes"/>
      <point x="621" y="717"/>
      <point x="756" y="579"/>
      <point x="756" y="370" type="curve" smooth="yes"/>
      <point x="756" y="161"/>
      <point x="621" y="23"/>
    </contour>
  </outline>
</glyph>
<glyph name="uni00AD" format="1">
  <advance width="302"/>
  <unicode hex="00AD"/>
  <outline>
    <contour>
      <point x="60" y="263" type="line"/>
      <point x="242" y="263" type="line"/>
      <point x="242" y="297" type="line"/>
      <point x="60" y="297" type="line"/>
    </contour>
  </outline>
</glyph>
<glyph name="twosuperior" format="1">
  <advance width="316"/>
  <unicode hex="00B2"/>
  <outline>
    <contour>
      <point x="37" y="300" type="line"/>
      <point x="275" y="300" type="line"/>
      <point x="275" y="334" type="line"/>
      <point x="71" y="334" type="line"/>
      <point x="71" y="366" type="line"/>
      <point x="71" y="442"/>
      <point x="100" y="494"/>
      <point x="173" y="557" type="curve"/>
      <point x="246" y="618"/>
      <point x="274" y="663"/>
      <point x="274" y="726" type="curve" smooth="yes"/>
      <point x="274" y="809"/>
      <point x="231" y="853"/>
      <point x="150" y="853" type="curve" smooth="yes"/>
      <point x="122" y="853"/>
      <point x="90" y="847"/>
      <point x="49" y="832" type="curve"/>
      <point x="58" y="799" type="line"/>
      <point x="102" y="813"/>
      <point x="129" y="819"/>
      <point x="150" y="819" type="curve" smooth="yes"/>
      <point x="208" y="819"/>
      <point x="240" y="786"/>
      <point x="240" y="726" type="curve" smooth="yes"/>
      <point x="240" y="675"/>
      <point x="215" y="635"/>
      <point x="151" y="583" type="curve" smooth="yes"/>
      <point x="71" y="517"/>
      <point x="37" y="453"/>
      <point x="37" y="366" type="curve"/>
    </contour>
  </outline>
</glyph>
<glyph name="paragraph" format="1">
  <advance width="446"/>
  <unicode hex="00B6"/>
  <outline>
    <contour>
      <point x="259" y="0" type="line"/>
      <point x="220" y="0" type="line"/>
      <point x="220" y="266" type="line"/>
      <point x="216" y="265"/>
      <point x="200" y="265"/>
      <point x="193" y="265" type="curve" smooth="yes"/>
      <point x="99" y="265"/>
      <point x="37" y="326"/>
      <point x="37" y="505" type="curve" smooth="yes"/>
      <point x="37" y="684"/>
      <point x="105" y="745"/>
      <point x="204" y="745" type="curve" smooth="yes"/>
      <point x="226" y="745"/>
      <point x="237" y="741"/>
      <point x="259" y="735" type="curve"/>
    </contour>
    <contour>
      <point x="362" y="0" type="line"/>
      <point x="319" y="0" type="line"/>
      <point x="319" y="735" type="line"/>
      <point x="362" y="735" type="line"/>
    </contour>
  </outline>
</glyph>
<glyph name="onesuperior" format="1">
  <advance width="238"/>
  <unicode hex="00B9"/>
  <outline>
    <contour>
      <point x="134" y="300" type="line"/>
      <point x="168" y="300" type="line"/>
      <point x="168" y="846" type="line"/>
      <point x="148" y="846" type="line"/>
      <point x="21" y="749" type="line"/>
      <point x="21" y="742" type="line"/>
      <point x="37" y="723" type="line"/>
      <point x="44" y="723" type="line"/>
      <point x="134" y="794" type="line"/>
    </contour>
  </outline>
</glyph>
<glyph name="ordmasculine" format="1">
  <advance width="382"/>
  <unicode hex="00BA"/>
  <outline>
    <contour>
      <point x="192" y="376" type="curve" smooth="yes"/>
      <point x="130" y="376"/>
      <point x="78" y="419"/>
      <point x="78" y="546" type="curve" smooth="yes"/>
      <point x="78" y="674"/>
      <point x="130" y="717"/>
      <point x="192" y="717" type="curve" smooth="yes"/>
      <point x="251" y="717"/>
      <point x="305" y="674"/>
      <point x="305" y="546" type="curve" smooth="yes"/>
      <point x="305" y="419"/>
      <point x="251" y="376"/>
    </contour>
    <contour>
      <point x="192" y="345" type="curve" smooth="yes"/>
      <point x="281" y="345"/>
      <point x="335" y="411"/>
      <point x="335" y="546" type="curve" smooth="yes"/>
      <point x="335" y="681"/>
      <point x="281" y="747"/>
      <point x="192" y="747" type="curve" smooth="yes"/>
      <point x="102" y="747"/>
      <point x="46" y="681"/>
      <point x="46" y="546" type="curve" smooth="yes"/>
      <point x="46" y="411"/>
      <point x="102" y="345"/>
    </contour>
  </outline>
</glyph>
<glyph name="multiply" format="1">
  <advance width="426"/>
  <unicode hex="00D7"/>
  <outline>
    <contour>
      <point x="346" y="214" type="line"/>
      <point x="370" y="238" type="line"/>
      <point x="80" y="528" type="line"/>
      <point x="56" y="504" type="line"/>
    </contour>
    <contour>
      <point x="80" y="214" type="line"/>
      <point x="370" y="504" type="line"/>
      <point x="346" y="528" type="line"/>
      <point x="56" y="238" type="line"/>
    </contour>
  </outline>
</glyph>
<glyph name="ae" format="1">
  <advance width="697"/>
  <unicode hex="00E6"/>
  <outline>
    <contour>
      <point x="353" y="600" type="move" name="top"/>
    </contour>
    <contour>
      <point x="512" y="-9" type="curve" smooth="yes"/>
      <point x="556" y="-9"/>
      <point x="599" y="2"/>
      <point x="635" y="22" type="curve"/>
      <point x="630" y="57" type="line"/>
      <point x="588" y="34"/>
      <point x="554" y="25"/>
      <point x="512" y="25" type="curve" smooth="yes"/>
      <point x="412" y="25"/>
      <point x="353" y="109"/>
      <point x="351" y="256" type="curve"/>
      <point x="653" y="256" type="line"/>
      <point x="656" y="277"/>
      <point x="657" y="295"/>
      <point x="657" y="327" type="curve" smooth="yes"/>
      <point x="657" y="470"/>
      <point x="603" y="549"/>
      <point x="506" y="549" type="curve" smooth="yes"/>
      <point x="431" y="549"/>
      <point x="378" y="510"/>
      <point x="348" y="436" type="curve"/>
      <point x="344" y="436" type="line"/>
      <point x="329" y="511"/>
      <point x="284" y="548"/>
      <point x="203" y="548" type="curve" smooth="yes"/>
      <point x="168" y="548"/>
      <point x="116" y="541"/>
      <point x="70" y="531" type="curve"/>
      <point x="76" y="497" type="line"/>
      <point x="117" y="508"/>
      <point x="163" y="515"/>
      <point x="196" y="515" type="curve" smooth="yes"/>
      <point x="279" y="515"/>
      <point x="317" y="473"/>
      <point x="317" y="380" type="curve" smooth="yes"/>
      <point x="317" y="296" type="line"/>
      <point x="219" y="288" type="line" smooth="yes"/>
      <point x="94" y="278"/>
      <point x="34" y="226"/>
      <point x="34" y="127" type="curve" smooth="yes"/>
      <point x="34" y="44"/>
      <point x="78" y="-5"/>
      <point x="153" y="-5" type="curve" smooth="yes"/>
      <point x="206" y="-5"/>
      <point x="244" y="18"/>
      <point x="348" y="87" type="curve"/>
      <point x="352" y="86" type="line"/>
      <point x="383" y="26"/>
      <point x="439" y="-9"/>
    </contour>
    <contour>
      <point x="161" y="30" type="curve" smooth="yes"/>
      <point x="102" y="30"/>
      <point x="70" y="65"/>
      <point x="70" y="130" type="curve" smooth="yes"/>
      <point x="70" y="209"/>
      <point x="114" y="247"/>
      <point x="225" y="256" type="curve" smooth="yes"/>
      <point x="317" y="263" type="line"/>
      <point x="317" y="205"/>
      <point x="324" y="158"/>
      <point x="338" y="120" type="curve"/>
      <point x="255" y="65"/>
      <point x="209" y="30"/>
    </contour>
    <contour>
      <point x="351" y="290" type="line"/>
      <point x="357" y="433"/>
      <point x="414" y="515"/>
      <point x="506" y="515" type="curve" smooth="yes"/>
      <point x="582" y="515"/>
      <point x="616" y="448"/>
      <point x="620" y="290" type="curve"/>
    </contour>
  </outline>
</glyph>
<glyph name="idieresis" format="1">
  <advance width="176"/>
  <unicode hex="00EF"/>
  <outline>
    <contour>
      <point x="8" y="636" type="curve" smooth="yes"/>
      <point x="23" y="636"/>
      <point x="35" y="645"/>
      <point x="35" y="663" type="curve" smooth="yes"/>
      <point x="35" y="681"/>
      <point x="23" y="690"/>
      <point x="8" y="690" type="curve" smooth="yes"/>
      <point x="-8" y="690"/>
      <point x="-20" y="681"/>
      <point x="-20" y="663" type="curve" smooth="yes"/>
      <point x="-20" y="645"/>
      <point x="-8" y="636"/>
    </contour>
    <contour>
      <point x="170" y="636" type="curve" smooth="yes"/>
      <point x="184" y="636"/>
      <point x="197" y="645"/>
      <point x="197" y="663" type="curve" smooth="yes"/>
      <point x="197" y="681"/>
      <point x="184" y="690"/>
      <point x="170" y="690" type="curve" smooth="yes"/>
      <point x="154" y="690"/>
      <point x="142" y="681"/>
      <point x="142" y="663" type="curve" smooth="yes"/>
      <point x="142" y="645"/>
      <point x="154" y="636"/>
    </contour>
    <component base="dotlessi" xOffset="1"/>
  </outline>
</glyph>
<glyph name="oslash" format="1">
  <advance width="470"/>
  <unicode hex="00F8"/>
  <outline>
    <contour>
      <point x="234" y="600" type="move" name="top"/>
    </contour>
    <contour>
      <point x="235" y="-8" type="curve" smooth="yes"/>
      <point x="359" y="-8"/>
      <point x="425" y="88"/>
      <point x="425" y="270" type="curve" smooth="yes"/>
      <point x="425" y="452"/>
      <point x="359" y="550"/>
      <point x="235" y="550" type="curve" smooth="yes"/>
      <point x="112" y="550"/>
      <point x="45" y="452"/>
      <point x="45" y="270" type="curve" smooth="yes"/>
      <point x="45" y="89"/>
      <point x="111" y="-8"/>
    </contour>
    <contour>
      <point x="235" y="26" type="curve" smooth="yes"/>
      <point x="133" y="26"/>
      <point x="81" y="108"/>
      <point x="81" y="270" type="curve" smooth="yes"/>
      <point x="81" y="433"/>
      <point x="133" y="516"/>
      <point x="235" y="516" type="curve" smooth="yes"/>
      <point x="337" y="516"/>
      <point x="389" y="433"/>
      <point x="389" y="270" type="curve" smooth="yes"/>
      <point x="389" y="107"/>
      <point x="338" y="26"/>
    </contour>
    <contour>
      <point x="35" y="0" type="line"/>
      <point x="75" y="0" type="line"/>
      <point x="432" y="540" type="line"/>
      <point x="393" y="540" type="line"/>
    </contour>
  </outline>
</glyph>
<glyph name="ibreve" format="1">
  <advance width="176"/>
  <unicode hex="012D"/>
  <outline>
    <contour>
      <point x="88" y="622" type="curve" smooth="yes"/>
      <point x="172" y="622"/>
      <point x="223" y="672"/>
      <point x="223" y="754" type="curve"/>
      <point x="189" y="754" type="line"/>
      <point x="189" y="693"/>
      <point x="151" y="656"/>
      <point x="88" y="656" type="curve" smooth="yes"/>
      <point x="25" y="656"/>
      <point x="-13" y="693"/>
      <point x="-13" y="754" type="curve"/>
      <point x="-47" y="754" type="line"/>
      <point x="-47" y="672"/>
      <point x="4" y="622"/>
    </contour>
    <component base="dotlessi" xOffset="1"/>
  </outline>
</glyph>
<glyph name="jcircumflex" format="1">
  <advance width="173"/>
  <unicode hex="0135"/>
  <outline>
    <contour>
      <point x="-39" y="641" type="line"/>
      <point x="82" y="713" type="line"/>
      <point x="203" y="641" type="line"/>
      <point x="203" y="682" type="line"/>
      <point x="82" y="754" type="line"/>
      <point x="-39" y="682" type="line"/>
    </contour>
    <component base="dotlessj"/>
  </outline>
</glyph>
<glyph name="lslash" format="1">
  <advance width="271"/>
  <unicode hex="0142"/>
  <outline>
    <contour>
      <point x="23" y="236" type="line"/>
      <point x="250" y="455" type="line"/>
      <point x="250" y="488" type="line"/>
      <point x="23" y="269" type="line"/>
    </contour>
    <component base="l" xOffset="37"/>
  </outline>
</glyph>
<glyph name="tcaron" format="1">
  <advance width="296"/>
  <unicode hex="0165"/>
  <outline>
    <contour>
      <point x="239" y="-4" type="curve" smooth="yes"/>
      <point x="254" y="-4"/>
      <point x="273" y="-2"/>
      <point x="298" y="3" type="curve"/>
      <point x="298" y="37" type="line"/>
      <point x="283" y="33"/>
      <point x="258" y="30"/>
      <point x="243" y="30" type="curve" smooth="yes"/>
      <point x="184" y="30"/>
      <point x="151" y="67"/>
      <point x="151" y="135" type="curve" smooth="yes"/>
      <point x="151" y="506" type="line"/>
      <point x="233" y="506" type="line"/>
      <point x="233" y="540" type="line"/>
      <point x="151" y="540" type="line"/>
      <point x="151" y="673" type="line"/>
      <point x="123" y="665" type="line"/>
      <point x="118" y="540" type="line"/>
      <point x="13" y="540" type="line"/>
      <point x="13" y="506" type="line"/>
      <point x="117" y="506" type="line"/>
      <point x="117" y="135" type="line" smooth="yes"/>
      <point x="117" y="42"/>
      <point x="157" y="-4"/>
    </contour>
    <component base="caron.alt" xOffset="162"/>
  </outline>
</glyph>
<glyph name="tilde" format="1">
  <advance width="390"/>
  <unicode hex="02DC"/>
  <outline>
    <contour>
      <point x="184" y="600" type="move" name="_top"/>
    </contour>
    <contour>
      <point x="65" y="636" type="line"/>
      <point x="79" y="656"/>
      <point x="103" y="675"/>
      <point x="125" y="675" type="curve" smooth="yes"/>
      <point x="168" y="675"/>
      <point x="194" y="632"/>
      <point x="244" y="632" type="curve" smooth="yes"/>
      <point x="275" y="632"/>
      <point x="310" y="655"/>
      <point x="323" y="686" type="curve"/>
      <point x="295" y="706" type="line"/>
      <point x="284" y="682"/>
      <point x="265" y="666"/>
      <point x="244" y="666" type="curve" smooth="yes"/>
      <point x="201" y="666"/>
      <point x="175" y="709"/>
      <point x="125" y="709" type="curve" smooth="yes"/>
      <point x="94" y="709"/>
      <point x="59" y="683"/>
      <point x="41" y="660" type="curve"/>
    </contour>
  </outline>
</glyph>
<glyph name="uni03A9" format="1">
  <advance width="690"/>
  <unicode hex="03A9"/>
  <outline>
    <contour>
      <point x="41" y="0" type="line"/>
      <point x="304" y="0" type="line"/>
      <point x="304" y="32" type="line"/>
      <point x="240" y="70"/>
      <point x="86" y="155"/>
      <point x="86" y="398" type="curve" smooth="yes"/>
      <point x="86" y="589"/>
      <point x="189" y="716"/>
      <point x="345" y="716" type="curve" smooth="yes"/>
      <point x="501" y="716"/>
      <point x="604" y="589"/>
      <point x="604" y="398" type="curve" smooth="yes"/>
      <point x="604" y="155"/>
      <point x="450" y="70"/>
      <point x="386" y="32" type="curve"/>
      <point x="386" y="0" type="line"/>
      <point x="649" y="0" type="line"/>
      <point x="649" y="34" type="line"/>
      <point x="443" y="34" type="line"/>
      <point x="525" y="86"/>
      <point x="638" y="188"/>
      <point x="638" y="398" type="curve" smooth="yes"/>
      <point x="638" y="610"/>
      <point x="522" y="750"/>
      <point x="345" y="750" type="curve" smooth="yes"/>
      <point x="168" y="750"/>
      <point x="52" y="610"/>
      <point x="52" y="398" type="curve" smooth="yes"/>
      <point x="52" y="188"/>
      <point x="164" y="86"/>
      <point x="247" y="34" type="curve"/>
      <point x="41" y="34" type="line"/>
    </contour>
  </outline>
</glyph>
<glyph name="emdash" format="1">
  <advance width="641"/>
  <unicode hex="2014"/>
  <outline>
    <contour>
      <point x="69" y="263" type="line"/>
      <point x="572" y="263" type="line"/>
      <point x="572" y="297" type="line"/>
      <point x="69" y="297" type="line"/>
    </contour>
  </outline>
</glyph>
<glyph name="quoteleft" format="1">
  <advance width="160"/>
  <unicode hex="2018"/>
  <outline>
    <contour>
      <point x="66" y="530" type="curve"/>
      <point x="100" y="540" type="line"/>
      <point x="89" y="574"/>
      <point x="84" y="605"/>
      <point x="84" y="633" type="curve" smooth="yes"/>
      <point x="84" y="686"/>
      <point x="97" y="751"/>
      <point x="117" y="803" type="curve"/>
      <point x="97" y="811" type="line"/>
      <point x="70" y="766"/>
      <point x="52" y="694"/>
      <point x="52" y="633" type="curve" smooth="yes"/>
      <point x="52" y="591"/>
      <point x="56" y="559"/>
    </contour>
  </outline>
</glyph>
<glyph name="dagger" format="1">
  <advance width="379"/>
  <unicode hex="2020"/>
  <outline>
    <contour>
      <point x="183" y="65" type="line"/>
      <point x="197" y="65" type="line"/>
      <point x="216" y="265" type="line"/>
      <point x="216" y="345" type="line"/>
      <point x="197" y="530" type="line"/>
      <point x="346" y="508" type="line"/>
      <point x="350" y="508" type="line"/>
      <point x="350" y="566" type="line"/>
      <point x="346" y="566" type="line"/>
      <point x="197" y="544" type="line"/>
      <point x="216" y="729" type="line"/>
      <point x="216" y="808" type="line"/>
      <point x="163" y="808" type="line"/>
      <point x="163" y="729" type="line"/>
      <point x="183" y="544" type="line"/>
      <point x="34" y="566" type="line"/>
      <point x="30" y="566" type="line"/>
      <point x="30" y="508" type="line"/>
      <point x="34" y="508" type="line"/>
      <point x="183" y="530" type="line"/>
      <point x="163" y="345" type="line"/>
      <point x="163" y="265" type="line"/>
    </contour>
  </outline>
</glyph>
<glyph name="daggerdbl" format="1">
  <advance width="420"/>
  <unicode hex="2021"/>
  <outline>
    <contour>
      <point x="183" y="-200" type="line"/>
      <point x="236" y="-200" type="line"/>
      <point x="236" y="-121" type="line"/>
      <point x="217" y="64" type="line"/>
      <point x="366" y="42" type="line"/>
      <point x="370" y="42" type="line"/>
      <point x="370" y="100" type="line"/>
      <point x="366" y="100" type="line"/>
      <point x="217" y="78" type="line"/>
      <point x="236" y="263" type="line"/>
      <point x="236" y="345" type="line"/>
      <point x="217" y="530" type="line"/>
      <point x="366" y="508" type="line"/>
      <point x="370" y="508" type="line"/>
      <point x="370" y="566" type="line"/>
      <point x="366" y="566" type="line"/>
      <point x="217" y="544" type="line"/>
      <point x="236" y="729" type="line"/>
      <point x="236" y="808" type="line"/>
      <point x="183" y="808" type="line"/>
      <point x="183" y="729" type="line"/>
      <point x="203" y="544" type="line"/>
      <point x="54" y="566" type="line"/>
      <point x="50" y="566" type="line"/>
      <point x="50" y="508" type="line"/>
      <point x="54" y="508" type="line"/>
      <point x="203" y="530" type="line"/>
      <point x="183" y="345" type="line"/>
      <point x="183" y="263" type="line"/>
      <point x="203" y="78" type="line"/>
      <point x="54" y="100" type="line"/>
      <point x="50" y="100" type="line"/>
      <point x="50" y="42" type="line"/>
      <point x="54" y="42" type="line"/>
      <point x="203" y="64" type="line"/>
      <point x="183" y="-121" type="line"/>
    </contour>
  </outline>
</glyph>
<glyph name="zerosuperior" format="1">
  <advance width="393"/>
  <unicode hex="2070"/>
  <note>
    546
  </note>
  <outline>
    <contour>
      <point x="197" y="293" type="curve"/>
      <point x="298" y="293"/>
      <point x="350" y="389"/>
      <point x="350" y="573" type="curve" smooth="yes"/>
      <point x="350" y="757"/>
      <point x="298" y="854"/>
      <point x="197" y="854" type="curve" smooth="yes"/>
      <point x="96" y="854"/>
      <point x="43" y="757"/>
      <point x="43" y="573" type="curve" smooth="yes"/>
      <point x="43" y="388"/>
      <point x="96" y="293"/>
    </contour>
    <contour>
      <point x="197" y="327" type="curve"/>
      <point x="117" y="327"/>
      <point x="77" y="410"/>
      <point x="77" y="573" type="curve" smooth="yes"/>
      <point x="77" y="733"/>
      <point x="119" y="820"/>
      <point x="197" y="820" type="curve" smooth="yes"/>
      <point x="274" y="820"/>
      <point x="316" y="733"/>
      <point x="316" y="573" type="curve" smooth="yes"/>
      <point x="316" y="411"/>
      <point x="276" y="327"/>
    </contour>
  </outline>
</glyph>
<glyph name="sixsuperior" format="1">
  <advance width="365"/>
  <unicode hex="2076"/>
  <outline>
    <contour>
      <point x="192" y="292" type="curve" smooth="yes"/>
      <point x="275" y="292"/>
      <point x="330" y="365"/>
      <point x="330" y="473" type="curve" smooth="yes"/>
      <point x="330" y="572"/>
      <point x="277" y="632"/>
      <point x="191" y="632" type="curve" smooth="yes"/>
      <point x="155" y="632"/>
      <point x="113" y="614"/>
      <point x="78" y="583" type="curve"/>
      <point x="87" y="733"/>
      <point x="142" y="821"/>
      <point x="228" y="821" type="curve" smooth="yes"/>
      <point x="252" y="821"/>
      <point x="273" y="817"/>
      <point x="302" y="806" type="curve"/>
      <point x="302" y="842" type="line"/>
      <point x="274" y="851"/>
      <point x="251" y="855"/>
      <point x="228" y="855" type="curve" smooth="yes"/>
      <point x="112" y="855"/>
      <point x="43" y="738"/>
      <point x="43" y="540" type="curve" smooth="yes"/>
      <point x="43" y="375"/>
      <point x="93" y="292"/>
    </contour>
    <contour>
      <point x="192" y="326" type="curve" smooth="yes"/>
      <point x="114" y="326"/>
      <point x="77" y="396"/>
      <point x="77" y="541" type="curve"/>
      <point x="112" y="576"/>
      <point x="156" y="598"/>
      <point x="191" y="598" type="curve" smooth="yes"/>
      <point x="257" y="598"/>
      <point x="296" y="552"/>
      <point x="296" y="473" type="curve" smooth="yes"/>
      <point x="296" y="384"/>
      <point x="255" y="326"/>
    </contour>
  </outline>
</glyph>
<glyph name="eightsuperior" format="1">
  <advance width="362"/>
  <unicode hex="2078"/>
  <outline>
    <contour>
      <point x="181" y="298" type="curve" smooth="yes"/>
      <point x="265" y="298"/>
      <point x="320" y="352"/>
      <point x="320" y="437" type="curve" smooth="yes"/>
      <point x="320" y="505"/>
      <point x="296" y="547"/>
      <point x="237" y="576" type="curve"/>
      <point x="285" y="601"/>
      <point x="307" y="645"/>
      <point x="307" y="715" type="curve" smooth="yes"/>
      <point x="307" y="803"/>
      <point x="261" y="853"/>
      <point x="181" y="853" type="curve" smooth="yes"/>
      <point x="102" y="853"/>
      <point x="55" y="802"/>
      <point x="55" y="715" type="curve" smooth="yes"/>
      <point x="55" y="653"/>
      <point x="76" y="612"/>
      <point x="124" y="584" type="curve"/>
      <point x="67" y="555"/>
      <point x="42" y="508"/>
      <point x="42" y="437" type="curve" smooth="yes"/>
      <point x="42" y="353"/>
      <point x="97" y="298"/>
    </contour>
    <contour>
      <point x="181" y="332" type="curve" smooth="yes"/>
      <point x="119" y="332"/>
      <point x="76" y="374"/>
      <point x="76" y="437" type="curve" smooth="yes"/>
      <point x="76" y="503"/>
      <point x="97" y="538"/>
      <point x="161" y="568" type="curve"/>
      <point x="182" y="561" type="line"/>
      <point x="261" y="538"/>
      <point x="286" y="507"/>
      <point x="286" y="437" type="curve" smooth="yes"/>
      <point x="286" y="374"/>
      <point x="244" y="332"/>
    </contour>
    <contour>
      <point x="192" y="593" type="curve"/>
      <point x="182" y="596" type="line" smooth="yes"/>
      <point x="115" y="619"/>
      <point x="89" y="653"/>
      <point x="89" y="715" type="curve" smooth="yes"/>
      <point x="89" y="780"/>
      <point x="123" y="819"/>
      <point x="181" y="819" type="curve" smooth="yes"/>
      <point x="239" y="819"/>
      <point x="273" y="781"/>
      <point x="273" y="715" type="curve" smooth="yes"/>
      <point x="273" y="653"/>
      <point x="250" y="617"/>
    </contour>
  </outline>
</glyph>
<glyph name="ninesuperior" format="1">
  <advance width="365"/>
  <unicode hex="2079"/>
  <outline>
    <contour>
      <point x="137" y="292" type="curve" smooth="yes"/>
      <point x="253" y="292"/>
      <point x="322" y="409"/>
      <point x="322" y="607" type="curve" smooth="yes"/>
      <point x="322" y="771"/>
      <point x="272" y="855"/>
      <point x="173" y="855" type="curve" smooth="yes"/>
      <point x="90" y="855"/>
      <point x="35" y="782"/>
      <point x="35" y="673" type="curve" smooth="yes"/>
      <point x="35" y="575"/>
      <point x="88" y="514"/>
      <point x="174" y="514" type="curve" smooth="yes"/>
      <point x="208" y="514"/>
      <point x="250" y="532"/>
      <point x="287" y="564" type="curve"/>
      <point x="278" y="414"/>
      <point x="222" y="326"/>
      <point x="137" y="326" type="curve" smooth="yes"/>
      <point x="113" y="326"/>
      <point x="91" y="330"/>
      <point x="63" y="341" type="curve"/>
      <point x="63" y="304" type="line"/>
      <point x="92" y="296"/>
      <point x="115" y="292"/>
    </contour>
    <contour>
      <point x="174" y="548" type="curve" smooth="yes"/>
      <point x="108" y="548"/>
      <point x="69" y="595"/>
      <point x="69" y="673" type="curve" smooth="yes"/>
      <point x="69" y="762"/>
      <point x="110" y="821"/>
      <point x="173" y="821" type="curve" smooth="yes"/>
      <point x="250" y="821"/>
      <point x="288" y="751"/>
      <point x="288" y="607" type="curve"/>
      <point x="254" y="571"/>
      <point x="210" y="548"/>
    </contour>
  </outline>
</glyph>
<glyph name="sixinferior" format="1">
  <advance width="365"/>
  <unicode hex="2086"/>
  <outline>
    <contour>
      <point x="192" y="-108" type="curve" smooth="yes"/>
      <point x="275" y="-108"/>
      <point x="330" y="-35"/>
      <point x="330" y="73" type="curve" smooth="yes"/>
      <point x="330" y="172"/>
      <point x="277" y="232"/>
      <point x="191" y="232" type="curve" smooth="yes"/>
      <point x="155" y="232"/>
      <point x="113" y="214"/>
      <point x="78" y="183" type="curve"/>
      <point x="87" y="333"/>
      <point x="142" y="421"/>
      <point x="228" y="421" type="curve" smooth="yes"/>
      <point x="252" y="421"/>
      <point x="273" y="417"/>
      <point x="302" y="406" type="curve"/>
      <point x="302" y="442" type="line"/>
      <point x="274" y="451"/>
      <point x="251" y="455"/>
      <point x="228" y="455" type="curve" smooth="yes"/>
      <point x="112" y="455"/>
      <point x="43" y="338"/>
      <point x="43" y="140" type="curve" smooth="yes"/>
      <point x="43" y="-25"/>
      <point x="93" y="-108"/>
    </contour>
    <contour>
      <point x="192" y="-74" type="curve" smooth="yes"/>
      <point x="114" y="-74"/>
      <point x="77" y="-4"/>
      <point x="77" y="141" type="curve"/>
      <point x="112" y="176"/>
      <point x="156" y="198"/>
      <point x="191" y="198" type="curve" smooth="yes"/>
      <point x="257" y="198"/>
      <point x="296" y="152"/>
      <point x="296" y="73" type="curve" smooth="yes"/>
      <point x="296" y="-16"/>
      <point x="255" y="-74"/>
    </contour>
  </outline>
</glyph>
<glyph name="seveninferior" format="1">
  <advance width="264"/>
  <unicode hex="2087"/>
  <outline>
    <contour>
      <point x="76" y="-109" type="line"/>
      <point x="52" y="-100" type="line"/>
      <point x="52" y="-89" type="line"/>
      <point x="221" y="436" type="line"/>
      <point x="222" y="406" type="line"/>
      <point x="28" y="406" type="line"/>
      <point x="28" y="436" type="line"/>
      <point x="33" y="440" type="line"/>
      <point x="231" y="440" type="line"/>
      <point x="240" y="432" type="line"/>
      <point x="240" y="393" type="line"/>
      <point x="84" y="-102" type="line"/>
    </contour>
  </outline>
</glyph>
<glyph name="eightinferior" format="1">
  <advance width="362"/>
  <unicode hex="2088"/>
  <outline>
    <contour>
      <point x="181" y="-102" type="curve" smooth="yes"/>
      <point x="265" y="-102"/>
      <point x="320" y="-48"/>
      <point x="320" y="37" type="curve" smooth="yes"/>
      <point x="320" y="105"/>
      <point x="296" y="147"/>
      <point x="237" y="176" type="curve"/>
      <point x="285" y="201"/>
      <point x="307" y="245"/>
      <point x="307" y="315" type="curve" smooth="yes"/>
      <point x="307" y="403"/>
      <point x="261" y="453"/>
      <point x="181" y="453" type="curve" smooth="yes"/>
      <point x="102" y="453"/>
      <point x="55" y="402"/>
      <point x="55" y="315" type="curve" smooth="yes"/>
      <point x="55" y="253"/>
      <point x="76" y="212"/>
      <point x="124" y="184" type="curve"/>
      <point x="67" y="155"/>
      <point x="42" y="108"/>
      <point x="42" y="37" type="curve" smooth="yes"/>
      <point x="42" y="-47"/>
      <point x="97" y="-102"/>
    </contour>
    <contour>
      <point x="181" y="-68" type="curve" smooth="yes"/>
      <point x="119" y="-68"/>
      <point x="76" y="-26"/>
      <point x="76" y="37" type="curve" smooth="yes"/>
      <point x="76" y="103"/>
      <point x="97" y="138"/>
      <point x="161" y="168" type="curve"/>
      <point x="182" y="161" type="line"/>
      <point x="261" y="138"/>
      <point x="286" y="107"/>
      <point x="286" y="37" type="curve" smooth="yes"/>
      <point x="286" y="-26"/>
      <point x="244" y="-68"/>
    </contour>
    <contour>
      <point x="192" y="193" type="curve"/>
      <point x="182" y="196" type="line" smooth="yes"/>
      <point x="115" y="219"/>
      <point x="89" y="253"/>
      <point x="89" y="315" type="curve" smooth="yes"/>
      <point x="89" y="380"/>
      <point x="123" y="419"/>
      <point x="181" y="419" type="curve" smooth="yes"/>
      <point x="239" y="419"/>
      <point x="273" y="381"/>
      <point x="273" y="315" type="curve" smooth="yes"/>
      <point x="273" y="253"/>
      <point x="250" y="217"/>
    </contour>
  </outline>
</glyph>
<glyph name="nineinferior" format="1">
  <advance width="365"/>
  <unicode hex="2089"/>
  <outline>
    <contour>
      <point x="137" y="-108" type="curve" smooth="yes"/>
      <point x="253" y="-108"/>
      <point x="322" y="9"/>
      <point x="322" y="207" type="curve" smooth="yes"/>
      <point x="322" y="371"/>
      <point x="272" y="455"/>
      <point x="173" y="455" type="curve" smooth="yes"/>
      <point x="90" y="455"/>
      <point x="35" y="382"/>
      <point x="35" y="273" type="curve" smooth="yes"/>
      <point x="35" y="175"/>
      <point x="88" y="114"/>
      <point x="174" y="114" type="curve" smooth="yes"/>
      <point x="208" y="114"/>
      <point x="250" y="132"/>
      <point x="287" y="164" type="curve"/>
      <point x="278" y="14"/>
      <point x="222" y="-74"/>
      <point x="137" y="-74" type="curve" smooth="yes"/>
      <point x="113" y="-74"/>
      <point x="91" y="-70"/>
      <point x="63" y="-59" type="curve"/>
      <point x="63" y="-96" type="line"/>
      <point x="92" y="-104"/>
      <point x="115" y="-108"/>
    </contour>
    <contour>
      <point x="174" y="148" type="curve" smooth="yes"/>
      <point x="108" y="148"/>
      <point x="69" y="195"/>
      <point x="69" y="273" type="curve" smooth="yes"/>
      <point x="69" y="362"/>
      <point x="110" y="421"/>
      <point x="173" y="421" type="curve" smooth="yes"/>
      <point x="250" y="421"/>
      <point x="288" y="351"/>
      <point x="288" y="207" type="curve"/>
      <point x="254" y="171"/>
      <point x="210" y="148"/>
    </contour>
  </outline>
</glyph>
<glyph name="franc" format="1">
  <advance width="516"/>
  <unicode hex="20A3"/>
  <outline>
    <contour>
      <point x="134" y="0" type="line"/>
      <point x="168" y="0" type="line"/>
      <point x="168" y="706" type="line"/>
      <point x="472" y="706" type="line"/>
      <point x="472" y="740" type="line"/>
      <point x="134" y="740" type="line"/>
    </contour>
    <contour>
      <point x="29" y="111" type="line"/>
      <point x="276" y="111" type="line"/>
      <point x="276" y="145" type="line"/>
      <point x="29" y="145" type="line"/>
    </contour>
    <contour>
      <point x="164" y="359" type="line"/>
      <point x="456" y="359" type="line"/>
      <point x="456" y="393" type="line"/>
      <point x="164" y="393" type="line"/>
    </contour>
  </outline>
</glyph>
<glyph name="uni20A6" format="1">
  <advance width="698"/>
  <unicode hex="20A6"/>
  <outline>
    <contour>
      <point x="43" y="266" type="line"/>
      <point x="655" y="266" type="line"/>
      <point x="655" y="300" type="line"/>
      <point x="43" y="300" type="line"/>
    </contour>
    <contour>
      <point x="43" y="437" type="line"/>
      <point x="655" y="437" type="line"/>
      <point x="655" y="471" type="line"/>
      <point x="43" y="471" type="line"/>
    </contour>
    <component base="N" xOffset="31"/>
  </outline>
</glyph>
<glyph name="servicemark" format="1">
  <advance width="770"/>
  <unicode hex="2120"/>
  <outline>
    <contour>
      <point x="167" y="313" type="curve"/>
      <point x="239" y="313"/>
      <point x="283" y="355"/>
      <point x="283" y="425" type="curve" smooth="yes"/>
      <point x="283" y="485"/>
      <point x="256" y="517"/>
      <point x="178" y="549" type="curve" smooth="yes"/>
      <point x="120" y="573"/>
      <point x="100" y="594"/>
      <point x="100" y="630" type="curve" smooth="yes"/>
      <point x="100" y="680"/>
      <point x="134" y="713"/>
      <point x="184" y="713" type="curve" smooth="yes"/>
      <point x="202" y="713"/>
      <point x="227" y="710"/>
      <point x="265" y="702" type="curve"/>
      <point x="273" y="736" type="line"/>
      <point x="236" y="743"/>
      <point x="209" y="747"/>
      <point x="184" y="747" type="curve" smooth="yes"/>
      <point x="113" y="747"/>
      <point x="66" y="701"/>
      <point x="66" y="630" type="curve" smooth="yes"/>
      <point x="66" y="578"/>
      <point x="92" y="549"/>
      <point x="164" y="518" type="curve" smooth="yes"/>
      <point x="225" y="492"/>
      <point x="249" y="465"/>
      <point x="249" y="425" type="curve" smooth="yes"/>
      <point x="249" y="375"/>
      <point x="219" y="347"/>
      <point x="167" y="347" type="curve" smooth="yes"/>
      <point x="138" y="347"/>
      <point x="89" y="356"/>
      <point x="66" y="367" type="curve"/>
      <point x="58" y="334" type="line"/>
      <point x="85" y="322"/>
      <point x="136" y="313"/>
    </contour>
    <contour>
      <point x="362" y="320" type="line"/>
      <point x="396" y="320" type="line"/>
      <point x="396" y="649" type="line"/>
      <point x="515" y="337" type="line"/>
      <point x="550" y="337" type="line"/>
      <point x="669" y="650" type="line"/>
      <point x="669" y="320" type="line"/>
      <point x="703" y="320" type="line"/>
      <point x="703" y="740" type="line"/>
      <point x="668" y="740" type="line"/>
      <point x="532" y="386" type="line"/>
      <point x="397" y="740" type="line"/>
      <point x="362" y="740" type="line"/>
    </contour>
  </outline>
</glyph>
<glyph name="estimated" format="1">
  <advance width="662"/>
  <unicode hex="212E"/>
  <outline>
    <contour>
      <point x="337" y="1" type="curve" smooth="yes"/>
      <point x="441" y="1"/>
      <point x="520" y="48"/>
      <point x="595" y="154" type="curve"/>
      <point x="555" y="178" type="line"/>
      <point x="503" y="87"/>
      <point x="431" y="42"/>
      <point x="337" y="42" type="curve" smooth="yes"/>
      <point x="273" y="42"/>
      <point x="221" y="64"/>
      <point x="178" y="108" type="curve"/>
      <point x="178" y="313" type="line"/>
      <point x="625" y="313" type="line"/>
      <point x="616" y="504"/>
      <point x="504" y="626"/>
      <point x="337" y="626" type="curve" smooth="yes"/>
      <point x="168" y="626"/>
      <point x="50" y="497"/>
      <point x="50" y="313" type="curve" smooth="yes"/>
      <point x="50" y="135"/>
      <point x="173" y="1"/>
    </contour>
    <contour>
      <point x="178" y="354" type="line"/>
      <point x="178" y="518" type="line"/>
      <point x="221" y="563"/>
      <point x="273" y="586"/>
      <point x="336" y="586" type="curve" smooth="yes"/>
      <point x="397" y="586"/>
      <point x="450" y="563"/>
      <point x="497" y="518" type="curve"/>
      <point x="497" y="354" type="line"/>
    </contour>
  </outline>
</glyph>
<glyph name="arrowright" format="1">
  <advance width="558"/>
  <unicode hex="2192"/>
  <outline>
    <contour>
      <point x="255" y="121" type="line"/>
      <point x="532" y="401" type="line"/>
      <point x="532" y="405" type="line"/>
      <point x="255" y="685" type="line"/>
      <point x="233" y="664" type="line"/>
      <point x="492" y="414" type="line"/>
      <point x="46" y="420" type="line"/>
      <point x="46" y="386" type="line"/>
      <point x="492" y="392" type="line"/>
      <point x="233" y="142" type="line"/>
    </contour>
  </outline>
</glyph>
<glyph name="arrowdown" format="1">
  <advance width="627"/>
  <unicode hex="2193"/>
  <outline>
    <contour>
      <point x="311" y="155" type="line"/>
      <point x="315" y="155" type="line"/>
      <point x="595" y="432" type="line"/>
      <point x="574" y="454" type="line"/>
      <point x="324" y="194" type="line"/>
      <point x="330" y="641" type="line"/>
      <point x="296" y="641" type="line"/>
      <point x="302" y="194" type="line"/>
      <point x="52" y="454" type="line"/>
      <point x="31" y="432" type="line"/>
    </contour>
  </outline>
</glyph>
<glyph name="Delta" format="1">
  <advance width="545"/>
  <unicode hex="2206"/>
  <outline>
    <contour>
      <point x="21" y="0" type="line"/>
      <point x="524" y="0" type="line"/>
      <point x="295" y="740" type="line"/>
      <point x="250" y="740" type="line"/>
    </contour>
    <contour>
      <point x="67" y="34" type="line"/>
      <point x="272" y="696" type="line"/>
      <point x="477" y="34" type="line"/>
    </contour>
  </outline>
</glyph>
<glyph name="integral" format="1">
  <advance width="290"/>
  <unicode hex="222B"/>
  <outline>
    <contour>
      <point x="82" y="-199" type="curve" smooth="yes"/>
      <point x="139" y="-199"/>
      <point x="191" y="-176"/>
      <point x="191" y="-92" type="curve" smooth="yes"/>
      <point x="191" y="-87"/>
      <point x="190" y="-81"/>
      <point x="190" y="-75" type="curve" smooth="yes"/>
      <point x="138" y="626" type="line"/>
      <point x="137" y="632"/>
      <point x="137" y="638"/>
      <point x="137" y="644" type="curve" smooth="yes"/>
      <point x="137" y="709"/>
      <point x="169" y="729"/>
      <point x="209" y="729" type="curve" smooth="yes"/>
      <point x="228" y="729"/>
      <point x="249" y="725"/>
      <point x="269" y="718" type="curve"/>
      <point x="271" y="725"/>
      <point x="272" y="735"/>
      <point x="274" y="746" type="curve"/>
      <point x="250" y="754"/>
      <point x="227" y="757"/>
      <point x="206" y="757" type="curve" smooth="yes"/>
      <point x="145" y="757"/>
      <point x="103" y="722"/>
      <point x="103" y="643" type="curve" smooth="yes"/>
      <point x="103" y="637"/>
      <point x="103" y="630"/>
      <point x="104" y="624" type="curve"/>
      <point x="157" y="-75" type="line"/>
      <point x="157" y="-89" type="line" smooth="yes"/>
      <point x="157" y="-150"/>
      <point x="124" y="-166"/>
      <point x="79" y="-166" type="curve" smooth="yes"/>
      <point x="61" y="-166"/>
      <point x="41" y="-163"/>
      <point x="21" y="-160" type="curve"/>
      <point x="15" y="-190" type="line"/>
      <point x="36" y="-195"/>
      <point x="59" y="-199"/>
    </contour>
  </outline>
</glyph>
<glyph name="notequal" format="1">
  <advance width="440"/>
  <unicode hex="2260"/>
  <outline>
    <contour>
      <point x="265" y="578" type="line"/>
      <point x="148" y="142" type="line"/>
      <point x="180" y="134" type="line"/>
      <point x="297" y="570" type="line"/>
    </contour>
    <contour>
      <point x="38" y="236" type="line"/>
      <point x="402" y="236" type="line"/>
      <point x="402" y="270" type="line"/>
      <point x="38" y="270" type="line"/>
    </contour>
    <contour>
      <point x="38" y="447" type="line"/>
      <point x="402" y="447" type="line"/>
      <point x="402" y="481" type="line"/>
      <point x="38" y="481" type="line"/>
    </contour>
  </outline>
</glyph>
<glyph name="greaterequal" format="1">
  <advance width="492"/>
  <unicode hex="2265"/>
  <outline>
    <contour>
      <point x="72" y="188" type="line"/>
      <point x="435" y="352" type="line"/>
      <point x="435" y="372" type="line"/>
      <point x="400" y="372" type="line"/>
      <point x="72" y="226" type="line"/>
    </contour>
    <contour>
      <point x="69" y="508" type="line"/>
      <point x="400" y="362" type="line"/>
      <point x="435" y="362" type="line"/>
      <point x="435" y="382" type="line"/>
      <point x="69" y="546" type="line"/>
    </contour>
    <contour>
      <point x="57" y="86" type="line"/>
      <point x="421" y="86" type="line"/>
      <point x="421" y="120" type="line"/>
      <point x="57" y="120" type="line"/>
    </contour>
  </outline>
</glyph>
<glyph name="lozenge" format="1">
  <advance width="406"/>
  <unicode hex="25CA"/>
  <outline>
    <contour>
      <point x="180" y="0" type="line"/>
      <point x="226" y="0" type="line"/>
      <point x="368" y="366" type="line"/>
      <point x="368" y="374" type="line"/>
      <point x="226" y="740" type="line"/>
      <point x="180" y="740" type="line"/>
      <point x="38" y="374" type="line"/>
      <point x="38" y="366" type="line"/>
    </contour>
    <contour>
      <point x="203" y="33" type="line"/>
      <point x="72" y="370" type="line"/>
      <point x="203" y="706" type="line"/>
      <point x="334" y="370" type="line"/>
    </contour>
  </outline>
</glyph>
<glyph name="AE.sc" format="1">
  <advance width="641"/>
  <outline>
    <contour>
      <point x="452" y="760" type="move" name="topUC"/>
    </contour>
    <contour>
      <point x="18" y="0" type="line"/>
      <point x="52" y="0" type="line"/>
      <point x="123" y="190" type="line"/>
      <point x="318" y="190" type="line"/>
      <point x="326" y="0" type="line"/>
      <point x="600" y="0" type="line"/>
      <point x="600" y="33" type="line"/>
      <point x="360" y="33" type="line"/>
      <point x="347" y="277" type="line"/>
      <point x="565" y="277" type="line"/>
      <point x="565" y="309" type="line"/>
      <point x="346" y="309" type="line"/>
      <point x="334" y="545" type="line"/>
      <point x="593" y="545" type="line"/>
      <point x="593" y="577" type="line"/>
      <point x="231" y="577" type="line"/>
      <point x="18" y="5" type="line"/>
    </contour>
    <contour>
      <point x="256" y="545" type="line"/>
      <point x="302" y="545" type="line"/>
      <point x="316" y="222" type="line"/>
      <point x="135" y="222" type="line"/>
    </contour>
  </outline>
</glyph>
<glyph name="AEacute.sc" format="1">
  <advance width="641"/>
  <outline>
    <contour>
      <point x="18" y="0" type="line"/>
      <point x="52" y="0" type="line"/>
      <point x="123" y="190" type="line"/>
      <point x="318" y="190" type="line"/>
      <point x="326" y="0" type="line"/>
      <point x="600" y="0" type="line"/>
      <point x="600" y="33" type="line"/>
      <point x="360" y="33" type="line"/>
      <point x="347" y="277" type="line"/>
      <point x="565" y="277" type="line"/>
      <point x="565" y="309" type="line"/>
      <point x="346" y="309" type="line"/>
      <point x="334" y="545" type="line"/>
      <point x="593" y="545" type="line"/>
      <point x="593" y="577" type="line"/>
      <point x="231" y="577" type="line"/>
      <point x="18" y="5" type="line"/>
    </contour>
    <contour>
      <point x="135" y="222" type="line"/>
      <point x="256" y="545" type="line"/>
      <point x="302" y="545" type="line"/>
      <point x="316" y="222" type="line"/>
    </contour>
    <contour>
      <point x="402" y="613" type="line"/>
      <point x="476" y="714" type="line"/>
      <point x="438" y="714" type="line"/>
      <point x="371" y="615" type="line"/>
    </contour>
  </outline>
</glyph>
<glyph name="Acircumflex.sc" format="1">
  <advance width="465"/>
  <outline>
    <contour>
      <point x="15" y="0" type="line"/>
      <point x="48" y="0" type="line"/>
      <point x="114" y="190" type="line"/>
      <point x="351" y="190" type="line"/>
      <point x="417" y="0" type="line"/>
      <point x="450" y="0" type="line"/>
      <point x="450" y="5" type="line"/>
      <point x="255" y="577" type="line"/>
      <point x="211" y="577" type="line"/>
      <point x="15" y="5" type="line"/>
    </contour>
    <contour>
      <point x="123" y="222" type="line"/>
      <point x="204" y="453" type="line"/>
      <point x="230" y="540" type="line"/>
      <point x="234" y="540" type="line"/>
      <point x="262" y="453" type="line"/>
      <point x="341" y="222" type="line"/>
    </contour>
    <contour>
      <point x="127" y="637" type="line"/>
      <point x="232" y="693" type="line"/>
      <point x="338" y="637" type="line"/>
      <point x="338" y="673" type="line"/>
      <point x="233" y="729" type="line"/>
      <point x="127" y="673" type="line"/>
    </contour>
  </outline>
</glyph>
<glyph name="Ainvertedbreve.sc" format="1">
  <advance width="465"/>
  <outline>
    <contour>
      <point x="115" y="643" type="curve"/>
      <point x="147" y="643" type="line"/>
      <point x="147" y="691"/>
      <point x="179" y="719"/>
      <point x="232" y="719" type="curve" smooth="yes"/>
      <point x="286" y="719"/>
      <point x="318" y="691"/>
      <point x="318" y="643" type="curve"/>
      <point x="350" y="643" type="line"/>
      <point x="350" y="708"/>
      <point x="306" y="748"/>
      <point x="232" y="748" type="curve" smooth="yes"/>
      <point x="159" y="748"/>
      <point x="115" y="708"/>
    </contour>
    <contour>
      <point x="15" y="0" type="line"/>
      <point x="48" y="0" type="line"/>
      <point x="114" y="190" type="line"/>
      <point x="351" y="190" type="line"/>
      <point x="417" y="0" type="line"/>
      <point x="450" y="0" type="line"/>
      <point x="450" y="5" type="line"/>
      <point x="255" y="577" type="line"/>
      <point x="211" y="577" type="line"/>
      <point x="15" y="5" type="line"/>
    </contour>
    <contour>
      <point x="123" y="222" type="line"/>
      <point x="204" y="453" type="line"/>
      <point x="230" y="540" type="line"/>
      <point x="234" y="540" type="line"/>
      <point x="262" y="453" type="line"/>
      <point x="341" y="222" type="line"/>
    </contour>
  </outline>
</glyph>
<glyph name="Aogonek.sc" format="1">
  <advance width="464"/>
  <outline>
    <contour>
      <point x="410" y="-171" type="curve" smooth="yes"/>
      <point x="424" y="-171"/>
      <point x="437" y="-168"/>
      <point x="449" y="-162" type="curve"/>
      <point x="449" y="-133" type="line"/>
      <point x="438" y="-139"/>
      <point x="426" y="-141"/>
      <point x="412" y="-141" type="curve" smooth="yes"/>
      <point x="386" y="-141"/>
      <point x="372" y="-130"/>
      <point x="372" y="-105" type="curve" smooth="yes"/>
      <point x="372" y="-67"/>
      <point x="402" y="-31"/>
      <point x="449" y="-14" type="curve"/>
      <point x="449" y="5" type="line"/>
      <point x="254" y="577" type="line"/>
      <point x="210" y="577" type="line"/>
      <point x="14" y="5" type="line"/>
      <point x="14" y="0" type="line"/>
      <point x="47" y="0" type="line"/>
      <point x="113" y="190" type="line"/>
      <point x="350" y="190" type="line"/>
      <point x="416" y="0" type="line"/>
      <point x="418" y="0" type="line"/>
      <point x="366" y="-30"/>
      <point x="340" y="-65"/>
      <point x="340" y="-106" type="curve" smooth="yes"/>
      <point x="340" y="-148"/>
      <point x="366" y="-171"/>
    </contour>
    <contour>
      <point x="122" y="222" type="line"/>
      <point x="203" y="459" type="line"/>
      <point x="229" y="540" type="line"/>
      <point x="233" y="540" type="line"/>
      <point x="261" y="459" type="line"/>
      <point x="340" y="222" type="line"/>
    </contour>
  </outline>
</glyph>
<glyph name="Atilde.sc" format="1">
  <advance width="465"/>
  <outline>
    <contour>
      <point x="15" y="0" type="line"/>
      <point x="48" y="0" type="line"/>
      <point x="114" y="190" type="line"/>
      <point x="351" y="190" type="line"/>
      <point x="417" y="0" type="line"/>
      <point x="450" y="0" type="line"/>
      <point x="450" y="5" type="line"/>
      <point x="255" y="577" type="line"/>
      <point x="211" y="577" type="line"/>
      <point x="15" y="5" type="line"/>
    </contour>
    <contour>
      <point x="123" y="222" type="line"/>
      <point x="204" y="453" type="line"/>
      <point x="230" y="540" type="line"/>
      <point x="234" y="540" type="line"/>
      <point x="262" y="453" type="line"/>
      <point x="341" y="222" type="line"/>
    </contour>
    <contour>
      <point x="130" y="644" type="line"/>
      <point x="143" y="661"/>
      <point x="163" y="675"/>
      <point x="183" y="675" type="curve" smooth="yes"/>
      <point x="220" y="675"/>
      <point x="244" y="641"/>
      <point x="286" y="641" type="curve" smooth="yes"/>
      <point x="314" y="641"/>
      <point x="345" y="660"/>
      <point x="358" y="687" type="curve"/>
      <point x="334" y="703" type="line"/>
      <point x="323" y="684"/>
      <point x="307" y="672"/>
      <point x="288" y="672" type="curve" smooth="yes"/>
      <point x="251" y="672"/>
      <point x="227" y="705"/>
      <point x="184" y="705" type="curve" smooth="yes"/>
      <point x="157" y="705"/>
      <point x="126" y="684"/>
      <point x="109" y="663" type="curve"/>
    </contour>
  </outline>
</glyph>
<glyph name="Dcroat.sc" format="1">
  <advance width="508"/>
  <outline>
    <contour>
      <point x="6" y="271" type="line"/>
      <point x="83" y="271" type="line"/>
      <point x="83" y="-7" type="line"/>
      <point x="113" y="-12"/>
      <point x="144" y="-13"/>
      <point x="175" y="-13" type="curve" smooth="yes"/>
      <point x="372" y="-13"/>
      <point x="460" y="80"/>
      <point x="460" y="288" type="curve" smooth="yes"/>
      <point x="460" y="490"/>
      <point x="380" y="585"/>
      <point x="209" y="585" type="curve" smooth="yes"/>
      <point x="174" y="585"/>
      <point x="132" y="580"/>
      <point x="83" y="572" type="curve"/>
      <point x="83" y="303" type="line"/>
      <point x="6" y="303" type="line"/>
    </contour>
    <contour>
      <point x="180" y="20" type="curve" smooth="yes"/>
      <point x="161" y="20"/>
      <point x="141" y="21"/>
      <point x="117" y="24" type="curve"/>
      <point x="117" y="271" type="line"/>
      <point x="255" y="271" type="line"/>
      <point x="255" y="303" type="line"/>
      <point x="117" y="303" type="line"/>
      <point x="117" y="545" type="line"/>
      <point x="147" y="550"/>
      <point x="177" y="553"/>
      <point x="206" y="553" type="curve" smooth="yes"/>
      <point x="356" y="553"/>
      <point x="425" y="471"/>
      <point x="425" y="288" type="curve" smooth="yes"/>
      <point x="425" y="108"/>
      <point x="343" y="20"/>
    </contour>
  </outline>
</glyph>
<glyph name="E.sc" format="1">
  <advance width="436"/>
  <outline>
    <contour>
      <point x="459" y="0" type="move" name="ogonek"/>
    </contour>
    <contour>
      <point x="268" y="760" type="move" name="topUC"/>
    </contour>
    <contour>
      <point x="288" y="0" type="move" name="bottom"/>
    </contour>
    <contour>
      <point x="77" y="0" type="line"/>
      <point x="396" y="0" type="line"/>
      <point x="396" y="33" type="line"/>
      <point x="111" y="33" type="line"/>
      <point x="111" y="277" type="line"/>
      <point x="361" y="277" type="line"/>
      <point x="361" y="309" type="line"/>
      <point x="111" y="309" type="line"/>
      <point x="111" y="545" type="line"/>
      <point x="389" y="545" type="line"/>
      <point x="389" y="577" type="line"/>
      <point x="77" y="577" type="line"/>
    </contour>
  </outline>
</glyph>
<glyph name="Ecaron.sc" format="1">
  <advance width="436"/>
  <outline>
    <contour>
      <point x="77" y="0" type="line"/>
      <point x="396" y="0" type="line"/>
      <point x="396" y="33" type="line"/>
      <point x="111" y="33" type="line"/>
      <point x="111" y="277" type="line"/>
      <point x="361" y="277" type="line"/>
      <point x="361" y="309" type="line"/>
      <point x="111" y="309" type="line"/>
      <point x="111" y="545" type="line"/>
      <point x="389" y="545" type="line"/>
      <point x="389" y="577" type="line"/>
      <point x="77" y="577" type="line"/>
    </contour>
    <contour>
      <point x="234" y="623" type="line"/>
      <point x="340" y="680" type="line"/>
      <point x="340" y="715" type="line"/>
      <point x="234" y="659" type="line"/>
      <point x="129" y="715" type="line"/>
      <point x="129" y="680" type="line"/>
    </contour>
  </outline>
</glyph>
<glyph name="Edblgrave.sc" format="1">
  <advance width="436"/>
  <outline>
    <contour>
      <point x="77" y="0" type="line"/>
      <point x="396" y="0" type="line"/>
      <point x="396" y="33" type="line"/>
      <point x="111" y="33" type="line"/>
      <point x="111" y="277" type="line"/>
      <point x="361" y="277" type="line"/>
      <point x="361" y="309" type="line"/>
      <point x="111" y="309" type="line"/>
      <point x="111" y="545" type="line"/>
      <point x="389" y="545" type="line"/>
      <point x="389" y="577" type="line"/>
      <point x="77" y="577" type="line"/>
    </contour>
    <contour>
      <point x="163" y="612" type="line"/>
      <point x="192" y="623" type="line"/>
      <point x="125" y="714" type="line"/>
      <point x="89" y="714" type="line"/>
    </contour>
    <contour>
      <point x="273" y="612" type="line"/>
      <point x="302" y="623" type="line"/>
      <point x="236" y="714" type="line"/>
      <point x="199" y="714" type="line"/>
    </contour>
  </outline>
</glyph>
<glyph name="Edotaccent.sc" format="1">
  <advance width="436"/>
  <outline>
    <contour>
      <point x="231" y="624" type="curve" smooth="yes"/>
      <point x="246" y="624"/>
      <point x="259" y="632"/>
      <point x="259" y="651" type="curve" smooth="yes"/>
      <point x="259" y="669"/>
      <point x="246" y="677"/>
      <point x="231" y="677" type="curve" smooth="yes"/>
      <point x="215" y="677"/>
      <point x="204" y="669"/>
      <point x="204" y="651" type="curve" smooth="yes"/>
      <point x="204" y="632"/>
      <point x="215" y="624"/>
    </contour>
    <contour>
      <point x="77" y="0" type="line"/>
      <point x="396" y="0" type="line"/>
      <point x="396" y="33" type="line"/>
      <point x="111" y="33" type="line"/>
      <point x="111" y="277" type="line"/>
      <point x="361" y="277" type="line"/>
      <point x="361" y="309" type="line"/>
      <point x="111" y="309" type="line"/>
      <point x="111" y="545" type="line"/>
      <point x="389" y="545" type="line"/>
      <point x="389" y="577" type="line"/>
      <point x="77" y="577" type="line"/>
    </contour>
  </outline>
</glyph>
<glyph name="Egrave.sc" format="1">
  <advance width="436"/>
  <outline>
    <contour>
      <point x="77" y="0" type="line"/>
      <point x="396" y="0" type="line"/>
      <point x="396" y="33" type="line"/>
      <point x="111" y="33" type="line"/>
      <point x="111" y="277" type="line"/>
      <point x="361" y="277" type="line"/>
      <point x="361" y="309" type="line"/>
      <point x="111" y="309" type="line"/>
      <point x="111" y="545" type="line"/>
      <point x="389" y="545" type="line"/>
      <point x="389" y="577" type="line"/>
      <point x="77" y="577" type="line"/>
    </contour>
    <contour>
      <point x="212" y="613" type="line"/>
      <point x="243" y="623" type="line"/>
      <point x="176" y="714" type="line"/>
      <point x="139" y="714" type="line"/>
    </contour>
  </outline>
</glyph>
<glyph name="Hbar.sc" format="1">
  <advance width="561"/>
  <outline>
    <contour>
      <point x="6" y="428" type="line"/>
      <point x="89" y="428" type="line"/>
      <point x="89" y="0" type="line"/>
      <point x="123" y="0" type="line"/>
      <point x="123" y="278" type="line"/>
      <point x="438" y="278" type="line"/>
      <point x="438" y="0" type="line"/>
      <point x="472" y="0" type="line"/>
      <point x="472" y="428" type="line"/>
      <point x="555" y="428" type="line"/>
      <point x="555" y="451" type="line"/>
      <point x="472" y="451" type="line"/>
      <point x="472" y="577" type="line"/>
      <point x="438" y="577" type="line"/>
      <point x="438" y="451" type="line"/>
      <point x="123" y="451" type="line"/>
      <point x="123" y="577" type="line"/>
      <point x="89" y="577" type="line"/>
      <point x="89" y="451" type="line"/>
      <point x="6" y="451" type="line"/>
    </contour>
    <contour>
      <point x="123" y="311" type="line"/>
      <point x="123" y="428" type="line"/>
      <point x="438" y="428" type="line"/>
      <point x="438" y="311" type="line"/>
    </contour>
  </outline>
</glyph>
<glyph name="Igrave.sc" format="1">
  <advance width="189"/>
  <outline>
    <contour>
      <point x="77" y="0" type="line"/>
      <point x="112" y="0" type="line"/>
      <point x="112" y="577" type="line"/>
      <point x="77" y="577" type="line"/>
    </contour>
    <contour>
      <point x="109" y="623" type="line"/>
      <point x="42" y="714" type="line"/>
      <point x="5" y="714" type="line"/>
      <point x="78" y="613" type="line"/>
    </contour>
  </outline>
</glyph>
<glyph name="Imacron.sc" format="1">
  <advance width="188"/>
  <outline>
    <contour>
      <point x="77" y="0" type="line"/>
      <point x="111" y="0" type="line"/>
      <point x="111" y="577" type="line"/>
      <point x="77" y="577" type="line"/>
    </contour>
    <contour>
      <point x="-4" y="656" type="line"/>
      <point x="182" y="656" type="line"/>
      <point x="182" y="687" type="line"/>
      <point x="-4" y="687" type="line"/>
    </contour>
  </outline>
</glyph>
<glyph name="Itilde.sc" format="1">
  <advance width="188"/>
  <outline>
    <contour>
      <point x="77" y="0" type="line"/>
      <point x="111" y="0" type="line"/>
      <point x="111" y="577" type="line"/>
      <point x="77" y="577" type="line"/>
    </contour>
    <contour>
      <point x="-7" y="644" type="line"/>
      <point x="6" y="661"/>
      <point x="27" y="675"/>
      <point x="46" y="675" type="curve" smooth="yes"/>
      <point x="83" y="675"/>
      <point x="107" y="641"/>
      <point x="150" y="641" type="curve" smooth="yes"/>
      <point x="178" y="641"/>
      <point x="208" y="660"/>
      <point x="221" y="687" type="curve"/>
      <point x="198" y="703" type="line"/>
      <point x="187" y="684"/>
      <point x="170" y="672"/>
      <point x="152" y="672" type="curve" smooth="yes"/>
      <point x="114" y="672"/>
      <point x="91" y="705"/>
      <point x="48" y="705" type="curve" smooth="yes"/>
      <point x="20" y="705"/>
      <point x="-10" y="684"/>
      <point x="-27" y="663" type="curve"/>
    </contour>
  </outline>
</glyph>
<glyph name="J.sc" format="1">
  <advance width="187"/>
  <outline>
    <contour>
      <point x="109" y="760" type="move" name="topUC"/>
    </contour>
    <contour>
      <point x="31" y="-138" type="line"/>
      <point x="88" y="-41"/>
      <point x="113" y="43"/>
      <point x="113" y="140" type="curve" smooth="yes"/>
      <point x="113" y="577" type="line"/>
      <point x="79" y="577" type="line"/>
      <point x="79" y="141" type="line" smooth="yes"/>
      <point x="79" y="39"/>
      <point x="65" y="-11"/>
      <point x="7" y="-124" type="curve"/>
    </contour>
  </outline>
</glyph>
<glyph name="Kcommaaccent.sc" format="1">
  <advance width="477"/>
  <outline>
    <contour>
      <point x="77" y="0" type="line"/>
      <point x="111" y="0" type="line"/>
      <point x="111" y="277" type="line"/>
      <point x="196" y="277" type="line"/>
      <point x="426" y="0" type="line"/>
      <point x="466" y="0" type="line"/>
      <point x="240" y="275" type="line"/>
      <point x="217" y="293" type="line"/>
      <point x="217" y="296" type="line"/>
      <point x="239" y="316" type="line"/>
      <point x="450" y="577" type="line"/>
      <point x="407" y="577" type="line"/>
      <point x="190" y="310" type="line"/>
      <point x="111" y="310" type="line"/>
      <point x="111" y="577" type="line"/>
      <point x="77" y="577" type="line"/>
    </contour>
    <contour>
      <point x="189" y="-172" type="line"/>
      <point x="223" y="-172" type="line"/>
      <point x="268" y="-52" type="line"/>
      <point x="233" y="-52" type="line"/>
    </contour>
  </outline>
</glyph>
<glyph name="Lcommaaccent.sc" format="1">
  <advance width="349"/>
  <outline>
    <contour>
      <point x="77" y="0" type="line"/>
      <point x="335" y="0" type="line"/>
      <point x="335" y="33" type="line"/>
      <point x="111" y="33" type="line"/>
      <point x="111" y="577" type="line"/>
      <point x="77" y="577" type="line"/>
    </contour>
    <contour>
      <point x="156" y="-172" type="line"/>
      <point x="190" y="-172" type="line"/>
      <point x="235" y="-52" type="line"/>
      <point x="200" y="-52" type="line"/>
    </contour>
  </outline>
</glyph>
<glyph name="Lslash.sc" format="1">
  <advance width="371"/>
  <outline>
    <contour>
      <point x="20" y="172" type="line"/>
      <point x="99" y="239" type="line"/>
      <point x="99" y="0" type="line"/>
      <point x="357" y="0" type="line"/>
      <point x="357" y="33" type="line"/>
      <point x="133" y="33" type="line"/>
      <point x="133" y="268" type="line"/>
      <point x="219" y="342" type="line"/>
      <point x="219" y="383" type="line"/>
      <point x="133" y="309" type="line"/>
      <point x="133" y="577" type="line"/>
      <point x="99" y="577" type="line"/>
      <point x="99" y="280" type="line"/>
      <point x="20" y="213" type="line"/>
    </contour>
  </outline>
</glyph>
<glyph name="Ncaron.sc" format="1">
  <advance width="568"/>
  <outline>
    <contour>
      <point x="77" y="0" type="line"/>
      <point x="110" y="0" type="line"/>
      <point x="110" y="517" type="line"/>
      <point x="114" y="517" type="line"/>
      <point x="156" y="448" type="line"/>
      <point x="453" y="0" type="line"/>
      <point x="491" y="0" type="line"/>
      <point x="491" y="577" type="line"/>
      <point x="458" y="577" type="line"/>
      <point x="458" y="60" type="line"/>
      <point x="454" y="59" type="line"/>
      <point x="414" y="126" type="line"/>
      <point x="115" y="577" type="line"/>
      <point x="77" y="577" type="line"/>
    </contour>
    <contour>
      <point x="293" y="623" type="line"/>
      <point x="398" y="680" type="line"/>
      <point x="398" y="715" type="line"/>
      <point x="293" y="659" type="line"/>
      <point x="187" y="715" type="line"/>
      <point x="187" y="680" type="line"/>
    </contour>
  </outline>
</glyph>
<glyph name="Ndotaccent.sc" format="1">
  <advance width="568"/>
  <outline>
    <contour>
      <point x="77" y="0" type="line"/>
      <point x="110" y="0" type="line"/>
      <point x="110" y="517" type="line"/>
      <point x="114" y="517" type="line"/>
      <point x="156" y="448" type="line"/>
      <point x="453" y="0" type="line"/>
      <point x="491" y="0" type="line"/>
      <point x="491" y="577" type="line"/>
      <point x="458" y="577" type="line"/>
      <point x="458" y="60" type="line"/>
      <point x="454" y="59" type="line"/>
      <point x="414" y="126" type="line"/>
      <point x="115" y="577" type="line"/>
      <point x="77" y="577" type="line"/>
    </contour>
    <contour>
      <point x="289" y="624" type="curve" smooth="yes"/>
      <point x="305" y="624"/>
      <point x="317" y="632"/>
      <point x="317" y="651" type="curve" smooth="yes"/>
      <point x="317" y="669"/>
      <point x="305" y="677"/>
      <point x="289" y="677" type="curve" smooth="yes"/>
      <point x="274" y="677"/>
      <point x="262" y="669"/>
      <point x="262" y="651" type="curve" smooth="yes"/>
      <point x="262" y="632"/>
      <point x="274" y="624"/>
    </contour>
  </outline>
</glyph>
<glyph name="Ntilde.sc" format="1">
  <advance width="568"/>
  <outline>
    <contour>
      <point x="186" y="644" type="line"/>
      <point x="199" y="661"/>
      <point x="220" y="675"/>
      <point x="239" y="675" type="curve" smooth="yes"/>
      <point x="276" y="675"/>
      <point x="300" y="641"/>
      <point x="343" y="641" type="curve" smooth="yes"/>
      <point x="371" y="641"/>
      <point x="401" y="660"/>
      <point x="414" y="687" type="curve"/>
      <point x="391" y="703" type="line"/>
      <point x="380" y="684"/>
      <point x="363" y="672"/>
      <point x="345" y="672" type="curve" smooth="yes"/>
      <point x="307" y="672"/>
      <point x="284" y="705"/>
      <point x="241" y="705" type="curve" smooth="yes"/>
      <point x="213" y="705"/>
      <point x="183" y="684"/>
      <point x="166" y="663" type="curve"/>
    </contour>
    <contour>
      <point x="77" y="0" type="line"/>
      <point x="110" y="0" type="line"/>
      <point x="110" y="517" type="line"/>
      <point x="114" y="517" type="line"/>
      <point x="156" y="448" type="line"/>
      <point x="453" y="0" type="line"/>
      <point x="491" y="0" type="line"/>
      <point x="491" y="577" type="line"/>
      <point x="458" y="577" type="line"/>
      <point x="458" y="60" type="line"/>
      <point x="454" y="59" type="line"/>
      <point x="414" y="126" type="line"/>
      <point x="115" y="577" type="line"/>
      <point x="77" y="577" type="line"/>
    </contour>
  </outline>
</glyph>
<glyph name="OE.sc" format="1">
  <advance width="656"/>
  <outline>
    <contour>
      <point x="262" y="-2" type="curve" smooth="yes"/>
      <point x="281" y="-2"/>
      <point x="315" y="-1"/>
      <point x="332" y="0" type="curve"/>
      <point x="615" y="0" type="line"/>
      <point x="615" y="33" type="line"/>
      <point x="363" y="33" type="line"/>
      <point x="363" y="277" type="line"/>
      <point x="581" y="277" type="line"/>
      <point x="581" y="310" type="line"/>
      <point x="363" y="310" type="line"/>
      <point x="363" y="545" type="line"/>
      <point x="607" y="545" type="line"/>
      <point x="607" y="577" type="line"/>
      <point x="332" y="577" type="line"/>
      <point x="315" y="578"/>
      <point x="281" y="579"/>
      <point x="262" y="579" type="curve" smooth="yes"/>
      <point x="119" y="579"/>
      <point x="48" y="483"/>
      <point x="48" y="288" type="curve" smooth="yes"/>
      <point x="48" y="94"/>
      <point x="119" y="-2"/>
    </contour>
    <contour>
      <point x="262" y="30" type="curve" smooth="yes"/>
      <point x="137" y="30"/>
      <point x="82" y="109"/>
      <point x="82" y="288" type="curve" smooth="yes"/>
      <point x="82" y="466"/>
      <point x="138" y="547"/>
      <point x="262" y="547" type="curve" smooth="yes"/>
      <point x="281" y="547"/>
      <point x="312" y="546"/>
      <point x="329" y="544" type="curve"/>
      <point x="329" y="33" type="line"/>
      <point x="312" y="31"/>
      <point x="280" y="30"/>
    </contour>
  </outline>
</glyph>
<glyph name="Odotbelow.sc" format="1">
  <advance width="521"/>
  <outline>
    <contour>
      <point x="261" y="-8" type="curve" smooth="yes"/>
      <point x="402" y="-8"/>
      <point x="473" y="91"/>
      <point x="473" y="288" type="curve" smooth="yes"/>
      <point x="473" y="487"/>
      <point x="402" y="585"/>
      <point x="261" y="585" type="curve" smooth="yes"/>
      <point x="118" y="585"/>
      <point x="48" y="487"/>
      <point x="48" y="288" type="curve" smooth="yes"/>
      <point x="48" y="90"/>
      <point x="118" y="-8"/>
    </contour>
    <contour>
      <point x="261" y="25" type="curve" smooth="yes"/>
      <point x="137" y="25"/>
      <point x="82" y="105"/>
      <point x="82" y="288" type="curve" smooth="yes"/>
      <point x="82" y="471"/>
      <point x="138" y="552"/>
      <point x="261" y="552" type="curve" smooth="yes"/>
      <point x="381" y="552"/>
      <point x="439" y="467"/>
      <point x="439" y="288" type="curve" smooth="yes"/>
      <point x="439" y="107"/>
      <point x="383" y="25"/>
    </contour>
    <contour>
      <point x="261" y="-128" type="curve" smooth="yes"/>
      <point x="279" y="-128"/>
      <point x="292" y="-120"/>
      <point x="292" y="-99" type="curve" smooth="yes"/>
      <point x="292" y="-78"/>
      <point x="279" y="-69"/>
      <point x="261" y="-69" type="curve" smooth="yes"/>
      <point x="242" y="-69"/>
      <point x="230" y="-77"/>
      <point x="230" y="-99" type="curve" smooth="yes"/>
      <point x="230" y="-120"/>
      <point x="242" y="-128"/>
    </contour>
  </outline>
</glyph>
<glyph name="Oslashacute.sc" format="1">
  <advance width="533"/>
  <outline>
    <contour>
      <point x="29" y="0" type="line"/>
      <point x="66" y="0" type="line"/>
      <point x="111" y="60" type="line"/>
      <point x="147" y="14"/>
      <point x="198" y="-8"/>
      <point x="267" y="-8" type="curve" smooth="yes"/>
      <point x="408" y="-8"/>
      <point x="480" y="91"/>
      <point x="480" y="288" type="curve" smooth="yes"/>
      <point x="480" y="375"/>
      <point x="466" y="442"/>
      <point x="439" y="491" type="curve"/>
      <point x="505" y="577" type="line"/>
      <point x="468" y="577" type="line"/>
      <point x="422" y="517" type="line"/>
      <point x="387" y="562"/>
      <point x="335" y="585"/>
      <point x="267" y="585" type="curve" smooth="yes"/>
      <point x="124" y="585"/>
      <point x="54" y="487"/>
      <point x="54" y="288" type="curve" smooth="yes"/>
      <point x="54" y="201"/>
      <point x="67" y="134"/>
      <point x="94" y="85" type="curve"/>
    </contour>
    <contour>
      <point x="267" y="25" type="curve" smooth="yes"/>
      <point x="205" y="25"/>
      <point x="161" y="45"/>
      <point x="132" y="87" type="curve"/>
      <point x="416" y="460" type="line"/>
      <point x="435" y="418"/>
      <point x="445" y="361"/>
      <point x="445" y="288" type="curve" smooth="yes"/>
      <point x="445" y="107"/>
      <point x="390" y="25"/>
    </contour>
    <contour>
      <point x="277" y="613" type="line"/>
      <point x="350" y="714" type="line"/>
      <point x="313" y="714" type="line"/>
      <point x="246" y="615" type="line"/>
    </contour>
    <contour>
      <point x="88" y="288" type="curve" smooth="yes"/>
      <point x="88" y="471"/>
      <point x="144" y="552"/>
      <point x="267" y="552" type="curve" smooth="yes"/>
      <point x="326" y="552"/>
      <point x="371" y="531"/>
      <point x="400" y="488" type="curve"/>
      <point x="116" y="115" type="line"/>
      <point x="97" y="157"/>
      <point x="88" y="214"/>
    </contour>
  </outline>
</glyph>
<glyph name="P.sc" format="1">
  <advance width="447"/>
  <outline>
    <contour>
      <point x="76" y="0" type="line"/>
      <point x="110" y="0" type="line"/>
      <point x="110" y="198" type="line"/>
      <point x="138" y="195"/>
      <point x="163" y="195"/>
      <point x="187" y="195" type="curve" smooth="yes"/>
      <point x="342" y="195"/>
      <point x="411" y="255"/>
      <point x="411" y="391" type="curve" smooth="yes"/>
      <point x="411" y="526"/>
      <point x="344" y="586"/>
      <point x="198" y="586" type="curve" smooth="yes"/>
      <point x="161" y="586"/>
      <point x="122" y="582"/>
      <point x="76" y="573" type="curve"/>
    </contour>
    <contour>
      <point x="196" y="227" type="curve" smooth="yes"/>
      <point x="168" y="227"/>
      <point x="138" y="230"/>
      <point x="110" y="233" type="curve"/>
      <point x="110" y="546" type="line"/>
      <point x="144" y="551"/>
      <point x="177" y="554"/>
      <point x="204" y="554" type="curve" smooth="yes"/>
      <point x="322" y="554"/>
      <point x="377" y="503"/>
      <point x="377" y="391" type="curve" smooth="yes"/>
      <point x="377" y="278"/>
      <point x="320" y="227"/>
    </contour>
  </outline>
</glyph>
<glyph name="Q.sc" format="1">
  <advance width="519"/>
  <outline>
    <contour>
      <point x="468" y="-75" type="curve"/>
      <point x="471" y="-42" type="line"/>
      <point x="382" y="-34"/>
      <point x="305" y="-23"/>
      <point x="261" y="-8" type="curve"/>
      <point x="261" y="-5" type="line"/>
      <point x="401" y="-2"/>
      <point x="471" y="96"/>
      <point x="471" y="288" type="curve" smooth="yes"/>
      <point x="471" y="486"/>
      <point x="401" y="585"/>
      <point x="259" y="585" type="curve" smooth="yes"/>
      <point x="116" y="585"/>
      <point x="46" y="487"/>
      <point x="46" y="288" type="curve" smooth="yes"/>
      <point x="46" y="27"/>
      <point x="164" y="-33"/>
    </contour>
    <contour>
      <point x="259" y="24" type="curve" smooth="yes"/>
      <point x="135" y="24"/>
      <point x="80" y="105"/>
      <point x="80" y="288" type="curve" smooth="yes"/>
      <point x="80" y="471"/>
      <point x="136" y="553"/>
      <point x="259" y="553" type="curve" smooth="yes"/>
      <point x="379" y="553"/>
      <point x="437" y="468"/>
      <point x="437" y="288" type="curve" smooth="yes"/>
      <point x="437" y="106"/>
      <point x="382" y="24"/>
    </contour>
  </outline>
</glyph>
<glyph name="Tdotbelow.sc" format="1">
  <advance width="400"/>
  <outline>
    <contour>
      <point x="183" y="0" type="line"/>
      <point x="217" y="0" type="line"/>
      <point x="217" y="544" type="line"/>
      <point x="384" y="544" type="line"/>
      <point x="384" y="577" type="line"/>
      <point x="16" y="577" type="line"/>
      <point x="16" y="544" type="line"/>
      <point x="183" y="544" type="line"/>
    </contour>
    <contour>
      <point x="203" y="-128" type="curve" smooth="yes"/>
      <point x="221" y="-128"/>
      <point x="234" y="-120"/>
      <point x="234" y="-99" type="curve" smooth="yes"/>
      <point x="234" y="-78"/>
      <point x="221" y="-69"/>
      <point x="203" y="-69" type="curve" smooth="yes"/>
      <point x="183" y="-69"/>
      <point x="171" y="-77"/>
      <point x="171" y="-99" type="curve" smooth="yes"/>
      <point x="171" y="-120"/>
      <point x="183" y="-128"/>
    </contour>
  </outline>
</glyph>
<glyph name="Ubreve.sc" format="1">
  <advance width="547"/>
  <outline>
    <contour>
      <point x="274" y="-8" type="curve" smooth="yes"/>
      <point x="417" y="-8"/>
      <point x="476" y="63"/>
      <point x="476" y="227" type="curve" smooth="yes"/>
      <point x="476" y="577" type="line"/>
      <point x="442" y="577" type="line"/>
      <point x="442" y="227" type="line" smooth="yes"/>
      <point x="442" y="85"/>
      <point x="391" y="25"/>
      <point x="274" y="25" type="curve" smooth="yes"/>
      <point x="157" y="25"/>
      <point x="105" y="86"/>
      <point x="105" y="227" type="curve" smooth="yes"/>
      <point x="105" y="577" type="line"/>
      <point x="71" y="577" type="line"/>
      <point x="71" y="227" type="line" smooth="yes"/>
      <point x="71" y="63"/>
      <point x="131" y="-8"/>
    </contour>
    <contour>
      <point x="275" y="635" type="curve" smooth="yes"/>
      <point x="348" y="635"/>
      <point x="393" y="675"/>
      <point x="393" y="741" type="curve"/>
      <point x="361" y="741" type="line"/>
      <point x="361" y="692"/>
      <point x="329" y="664"/>
      <point x="275" y="664" type="curve" smooth="yes"/>
      <point x="221" y="664"/>
      <point x="189" y="692"/>
      <point x="189" y="741" type="curve"/>
      <point x="157" y="741" type="line"/>
      <point x="157" y="675"/>
      <point x="201" y="635"/>
    </contour>
  </outline>
</glyph>
<glyph name="V.sc" format="1">
  <advance width="481"/>
  <outline>
    <contour>
      <point x="219" y="0" type="line"/>
      <point x="262" y="0" type="line"/>
      <point x="466" y="577" type="line"/>
      <point x="431" y="577" type="line"/>
      <point x="274" y="137" type="line"/>
      <point x="243" y="40" type="line"/>
      <point x="239" y="40" type="line"/>
      <point x="207" y="137" type="line"/>
      <point x="50" y="577" type="line"/>
      <point x="15" y="577" type="line"/>
    </contour>
  </outline>
</glyph>
<glyph name="Wcircumflex.sc" format="1">
  <advance width="742"/>
  <outline>
    <contour>
      <point x="177" y="0" type="line"/>
      <point x="222" y="0" type="line"/>
      <point x="350" y="441" type="line"/>
      <point x="372" y="526" type="line"/>
      <point x="375" y="526" type="line"/>
      <point x="395" y="441" type="line"/>
      <point x="513" y="0" type="line"/>
      <point x="559" y="0" type="line"/>
      <point x="724" y="577" type="line"/>
      <point x="689" y="577" type="line"/>
      <point x="568" y="152" type="line"/>
      <point x="539" y="43" type="line"/>
      <point x="535" y="43" type="line"/>
      <point x="508" y="152" type="line"/>
      <point x="395" y="577" type="line"/>
      <point x="354" y="577" type="line"/>
      <point x="232" y="152" type="line"/>
      <point x="203" y="43" type="line"/>
      <point x="199" y="43" type="line"/>
      <point x="172" y="152" type="line"/>
      <point x="61" y="577" type="line"/>
      <point x="24" y="577" type="line"/>
    </contour>
    <contour>
      <point x="268" y="637" type="line"/>
      <point x="373" y="693" type="line"/>
      <point x="479" y="637" type="line"/>
      <point x="479" y="673" type="line"/>
      <point x="373" y="729" type="line"/>
      <point x="268" y="673" type="line"/>
    </contour>
  </outline>
</glyph>
<glyph name="Wgrave.sc" format="1">
  <advance width="742"/>
  <outline>
    <contour>
      <point x="177" y="0" type="line"/>
      <point x="222" y="0" type="line"/>
      <point x="350" y="441" type="line"/>
      <point x="372" y="526" type="line"/>
      <point x="375" y="526" type="line"/>
      <point x="395" y="441" type="line"/>
      <point x="513" y="0" type="line"/>
      <point x="559" y="0" type="line"/>
      <point x="724" y="577" type="line"/>
      <point x="689" y="577" type="line"/>
      <point x="568" y="152" type="line"/>
      <point x="539" y="43" type="line"/>
      <point x="535" y="43" type="line"/>
      <point x="508" y="152" type="line"/>
      <point x="395" y="577" type="line"/>
      <point x="354" y="577" type="line"/>
      <point x="232" y="152" type="line"/>
      <point x="203" y="43" type="line"/>
      <point x="199" y="43" type="line"/>
      <point x="172" y="152" type="line"/>
      <point x="61" y="577" type="line"/>
      <point x="24" y="577" type="line"/>
    </contour>
    <contour>
      <point x="386" y="623" type="line"/>
      <point x="319" y="714" type="line"/>
      <point x="282" y="714" type="line"/>
      <point x="355" y="613" type="line"/>
    </contour>
  </outline>
</glyph>
<glyph name="Z.sc" format="1">
  <advance width="402"/>
  <outline>
    <contour>
      <point x="235" y="760" type="move" name="topUC"/>
    </contour>
    <contour>
      <point x="228" y="0" type="move" name="bottom"/>
    </contour>
    <contour>
      <point x="33" y="0" type="line"/>
      <point x="370" y="0" type="line"/>
      <point x="370" y="32" type="line"/>
      <point x="77" y="32" type="line"/>
      <point x="77" y="35" type="line"/>
      <point x="366" y="553" type="line"/>
      <point x="366" y="577" type="line"/>
      <point x="37" y="577" type="line"/>
      <point x="37" y="544" type="line"/>
      <point x="321" y="544" type="line"/>
      <point x="321" y="541" type="line"/>
      <point x="33" y="25" type="line"/>
    </contour>
  </outline>
</glyph>
<glyph name="acute.cap" format="1">
  <advance width="195"/>
  <outline>
    <contour>
      <point x="56" y="760" type="move" name="_topUC"/>
    </contour>
    <contour>
      <point x="69" y="784" type="line"/>
      <point x="154" y="910" type="line"/>
      <point x="116" y="910" type="line"/>
      <point x="37" y="787" type="line"/>
    </contour>
  </outline>
</glyph>
<glyph name="braceleft.sc" format="1">
  <advance width="315"/>
  <outline>
    <contour>
      <point x="34" y="267" type="line"/>
      <point x="77" y="267"/>
      <point x="103" y="235"/>
      <point x="103" y="180" type="curve" smooth="yes"/>
      <point x="103" y="-35" type="line" smooth="yes"/>
      <point x="103" y="-98"/>
      <point x="122" y="-116"/>
      <point x="191" y="-116" type="curve" smooth="yes"/>
      <point x="214" y="-116"/>
      <point x="267" y="-114"/>
      <point x="275" y="-113" type="curve"/>
      <point x="275" y="-86" type="line"/>
      <point x="186" y="-86" type="line" smooth="yes"/>
      <point x="147" y="-86"/>
      <point x="136" y="-76"/>
      <point x="136" y="-42" type="curve" smooth="yes"/>
      <point x="136" y="186" type="line" smooth="yes"/>
      <point x="136" y="231"/>
      <point x="117" y="268"/>
      <point x="89" y="280" type="curve"/>
      <point x="117" y="293"/>
      <point x="136" y="329"/>
      <point x="136" y="375" type="curve" smooth="yes"/>
      <point x="136" y="603" type="line" smooth="yes"/>
      <point x="136" y="636"/>
      <point x="147" y="646"/>
      <point x="186" y="646" type="curve" smooth="yes"/>
      <point x="275" y="646" type="line"/>
      <point x="275" y="673" type="line"/>
      <point x="267" y="675"/>
      <point x="214" y="677"/>
      <point x="191" y="677" type="curve" smooth="yes"/>
      <point x="122" y="677"/>
      <point x="103" y="659"/>
      <point x="103" y="595" type="curve" smooth="yes"/>
      <point x="103" y="380" type="line" smooth="yes"/>
      <point x="103" y="326"/>
      <point x="77" y="294"/>
      <point x="34" y="294" type="curve"/>
    </contour>
  </outline>
</glyph>
<glyph name="breve.cap" format="1">
  <advance width="361"/>
  <outline>
    <contour>
      <point x="180" y="760" type="move" name="_topUC"/>
    </contour>
    <contour>
      <point x="182" y="816" type="curve" smooth="yes"/>
      <point x="266" y="816"/>
      <point x="317" y="866"/>
      <point x="317" y="948" type="curve"/>
      <point x="283" y="948" type="line"/>
      <point x="283" y="887"/>
      <point x="245" y="850"/>
      <point x="182" y="850" type="curve" smooth="yes"/>
      <point x="119" y="850"/>
      <point x="81" y="887"/>
      <point x="81" y="948" type="curve"/>
      <point x="47" y="948" type="line"/>
      <point x="47" y="866"/>
      <point x="98" y="816"/>
    </contour>
  </outline>
</glyph>
<glyph name="colon.tab" format="1">
  <advance width="240"/>
  <outline>
    <contour>
      <point x="119" y="-1" type="curve" smooth="yes"/>
      <point x="139" y="-1"/>
      <point x="153" y="11"/>
      <point x="153" y="30" type="curve" smooth="yes"/>
      <point x="153" y="49"/>
      <point x="139" y="62"/>
      <point x="119" y="62" type="curve" smooth="yes"/>
      <point x="99" y="62"/>
      <point x="87" y="50"/>
      <point x="87" y="30" type="curve" smooth="yes"/>
      <point x="87" y="11"/>
      <point x="99" y="-1"/>
    </contour>
    <contour>
      <point x="119" y="479" type="curve" smooth="yes"/>
      <point x="139" y="479"/>
      <point x="153" y="491"/>
      <point x="153" y="510" type="curve" smooth="yes"/>
      <point x="153" y="529"/>
      <point x="139" y="542"/>
      <point x="119" y="542" type="curve" smooth="yes"/>
      <point x="99" y="542"/>
      <point x="87" y="530"/>
      <point x="87" y="510" type="curve" smooth="yes"/>
      <point x="87" y="491"/>
      <point x="99" y="479"/>
    </contour>
  </outline>
</glyph>
<glyph name="dotbelow" format="1">
  <advance width="196"/>
  <outline>
    <contour>
      <point x="98" y="0" type="move" name="_bottom"/>
    </contour>
    <contour>
      <point x="98" y="-160" type="curve" smooth="yes"/>
      <point x="118" y="-160"/>
      <point x="133" y="-150"/>
      <point x="133" y="-125" type="curve" smooth="yes"/>
      <point x="133" y="-100"/>
      <point x="118" y="-90"/>
      <point x="98" y="-90" type="curve" smooth="yes"/>
      <point x="77" y="-90"/>
      <point x="63" y="-99"/>
      <point x="63" y="-125" type="curve" smooth="yes"/>
      <point x="63" y="-150"/>
      <point x="77" y="-160"/>
    </contour>
  </outline>
</glyph>
<glyph name="eight.numerator" format="1">
  <advance width="362"/>
  <outline>
    <contour>
      <point x="181" y="198" type="curve" smooth="yes"/>
      <point x="265" y="198"/>
      <point x="320" y="252"/>
      <point x="320" y="337" type="curve" smooth="yes"/>
      <point x="320" y="405"/>
      <point x="296" y="447"/>
      <point x="237" y="476" type="curve"/>
      <point x="285" y="501"/>
      <point x="307" y="545"/>
      <point x="307" y="615" type="curve" smooth="yes"/>
      <point x="307" y="703"/>
      <point x="261" y="753"/>
      <point x="181" y="753" type="curve" smooth="yes"/>
      <point x="102" y="753"/>
      <point x="55" y="702"/>
      <point x="55" y="615" type="curve" smooth="yes"/>
      <point x="55" y="553"/>
      <point x="76" y="512"/>
      <point x="124" y="484" type="curve"/>
      <point x="67" y="455"/>
      <point x="42" y="408"/>
      <point x="42" y="337" type="curve" smooth="yes"/>
      <point x="42" y="253"/>
      <point x="97" y="198"/>
    </contour>
    <contour>
      <point x="181" y="232" type="curve" smooth="yes"/>
      <point x="119" y="232"/>
      <point x="76" y="274"/>
      <point x="76" y="337" type="curve" smooth="yes"/>
      <point x="76" y="403"/>
      <point x="97" y="438"/>
      <point x="161" y="468" type="curve"/>
      <point x="182" y="461" type="line"/>
      <point x="261" y="438"/>
      <point x="286" y="407"/>
      <point x="286" y="337" type="curve" smooth="yes"/>
      <point x="286" y="274"/>
      <point x="244" y="232"/>
    </contour>
    <contour>
      <point x="192" y="493" type="curve"/>
      <point x="182" y="496" type="line" smooth="yes"/>
      <point x="115" y="519"/>
      <point x="89" y="553"/>
      <point x="89" y="615" type="curve" smooth="yes"/>
      <point x="89" y="680"/>
      <point x="123" y="719"/>
      <point x="181" y="719" type="curve" smooth="yes"/>
      <point x="239" y="719"/>
      <point x="273" y="681"/>
      <point x="273" y="615" type="curve" smooth="yes"/>
      <point x="273" y="553"/>
      <point x="250" y="517"/>
    </contour>
  </outline>
</glyph>
<glyph name="eight.osf" format="1">
  <advance width="467"/>
  <outline>
    <contour>
      <point x="234" y="-3" type="curve" smooth="yes"/>
      <point x="346" y="-3"/>
      <point x="419" y="63"/>
      <point x="419" y="167" type="curve" smooth="yes"/>
      <point x="419" y="275"/>
      <point x="371" y="328"/>
      <point x="247" y="363" type="curve" smooth="yes"/>
      <point x="141" y="394"/>
      <point x="100" y="434"/>
      <point x="100" y="520" type="curve" smooth="yes"/>
      <point x="100" y="606"/>
      <point x="150" y="655"/>
      <point x="234" y="655" type="curve" smooth="yes"/>
      <point x="318" y="655"/>
      <point x="367" y="607"/>
      <point x="367" y="520" type="curve" smooth="yes"/>
      <point x="367" y="430"/>
      <point x="331" y="384"/>
      <point x="240" y="355" type="curve"/>
      <point x="277" y="336" type="line"/>
      <point x="363" y="364"/>
      <point x="401" y="420"/>
      <point x="401" y="520" type="curve" smooth="yes"/>
      <point x="401" y="627"/>
      <point x="340" y="689"/>
      <point x="234" y="689" type="curve" smooth="yes"/>
      <point x="128" y="689"/>
      <point x="66" y="626"/>
      <point x="66" y="520" type="curve" smooth="yes"/>
      <point x="66" y="418"/>
      <point x="118" y="361"/>
      <point x="237" y="330" type="curve" smooth="yes"/>
      <point x="349" y="301"/>
      <point x="385" y="259"/>
      <point x="385" y="167" type="curve" smooth="yes"/>
      <point x="385" y="83"/>
      <point x="324" y="32"/>
      <point x="234" y="32" type="curve" smooth="yes"/>
      <point x="144" y="32"/>
      <point x="82" y="84"/>
      <point x="82" y="167" type="curve" smooth="yes"/>
      <point x="82" y="262"/>
      <point x="116" y="306"/>
      <point x="219" y="345" type="curve"/>
      <point x="190" y="365" type="line"/>
      <point x="91" y="330"/>
      <point x="48" y="267"/>
      <point x="48" y="167" type="curve" smooth="yes"/>
      <point x="48" y="64"/>
      <point x="122" y="-3"/>
    </contour>
  </outline>
</glyph>
<glyph name="five.numerator" format="1">
  <advance width="298"/>
  <outline>
    <contour>
      <point x="117" y="191" type="curve" smooth="yes"/>
      <point x="209" y="191"/>
      <point x="260" y="251"/>
      <point x="260" y="357" type="curve" smooth="yes"/>
      <point x="260" y="468"/>
      <point x="213" y="512"/>
      <point x="85" y="515" type="curve"/>
      <point x="100" y="712" type="line"/>
      <point x="245" y="712" type="line"/>
      <point x="245" y="746" type="line"/>
      <point x="68" y="746" type="line"/>
      <point x="49" y="488" type="line"/>
      <point x="55" y="482" type="line"/>
      <point x="92" y="482" type="line" smooth="yes"/>
      <point x="186" y="482"/>
      <point x="225" y="445"/>
      <point x="225" y="357" type="curve" smooth="yes"/>
      <point x="225" y="273"/>
      <point x="186" y="225"/>
      <point x="117" y="225" type="curve" smooth="yes"/>
      <point x="99" y="225"/>
      <point x="80" y="228"/>
      <point x="54" y="234" type="curve"/>
      <point x="42" y="234" type="line"/>
      <point x="42" y="203" type="line"/>
      <point x="70" y="195"/>
      <point x="94" y="191"/>
    </contour>
  </outline>
</glyph>
<glyph name="five.tosf" format="1">
  <advance width="480"/>
  <outline>
    <contour>
      <point x="190" y="-171" type="curve" smooth="yes"/>
      <point x="324" y="-171"/>
      <point x="400" y="-90"/>
      <point x="400" y="51" type="curve" smooth="yes"/>
      <point x="400" y="205"/>
      <point x="328" y="262"/>
      <point x="132" y="264" type="curve"/>
      <point x="155" y="548" type="line"/>
      <point x="377" y="548" type="line"/>
      <point x="377" y="582" type="line"/>
      <point x="123" y="582" type="line"/>
      <point x="95" y="234" type="line"/>
      <point x="99" y="230" type="line"/>
      <point x="152" y="230" type="line" smooth="yes"/>
      <point x="301" y="230"/>
      <point x="363" y="178"/>
      <point x="363" y="51" type="curve" smooth="yes"/>
      <point x="363" y="-69"/>
      <point x="301" y="-137"/>
      <point x="190" y="-137" type="curve" smooth="yes"/>
      <point x="164" y="-137"/>
      <point x="134" y="-133"/>
      <point x="94" y="-125" type="curve"/>
      <point x="84" y="-125" type="line"/>
      <point x="84" y="-156" type="line"/>
      <point x="121" y="-166"/>
      <point x="156" y="-171"/>
    </contour>
  </outline>
</glyph>
<glyph name="four.numerator" format="1">
  <advance width="354"/>
  <outline>
    <contour>
      <point x="239" y="200" type="line"/>
      <point x="273" y="200" type="line"/>
      <point x="273" y="340" type="line"/>
      <point x="328" y="340" type="line"/>
      <point x="328" y="372" type="line"/>
      <point x="273" y="372" type="line"/>
      <point x="273" y="593" type="line"/>
      <point x="247" y="593" type="line"/>
      <point x="239" y="372" type="line"/>
      <point x="61" y="372" type="line"/>
      <point x="231" y="737" type="line"/>
      <point x="231" y="745" type="line"/>
      <point x="211" y="754" type="line"/>
      <point x="202" y="754" type="line"/>
      <point x="20" y="359" type="line"/>
      <point x="37" y="340" type="line"/>
      <point x="239" y="340" type="line"/>
    </contour>
  </outline>
</glyph>
<glyph name="four.osf" format="1">
  <advance width="460"/>
  <outline>
    <contour>
      <point x="40" y="31" type="line"/>
      <point x="433" y="31" type="line"/>
      <point x="433" y="63" type="line"/>
      <point x="64" y="63" type="line"/>
      <point x="64" y="69" type="line"/>
      <point x="299" y="574" type="line"/>
      <point x="299" y="579" type="line"/>
      <point x="277" y="589" type="line"/>
      <point x="270" y="589" type="line"/>
      <point x="21" y="50" type="line"/>
      <point x="21" y="46" type="line"/>
    </contour>
    <contour>
      <point x="323" y="-161" type="line"/>
      <point x="357" y="-161" type="line"/>
      <point x="357" y="368" type="line"/>
      <point x="333" y="368" type="line"/>
      <point x="323" y="88" type="line"/>
    </contour>
  </outline>
</glyph>
<glyph name="four.tosf" format="1">
  <advance width="480"/>
  <outline>
    <contour>
      <point x="50" y="31" type="line"/>
      <point x="332" y="31" type="line"/>
      <point x="332" y="-161" type="line"/>
      <point x="366" y="-161" type="line"/>
      <point x="366" y="31" type="line"/>
      <point x="442" y="31" type="line"/>
      <point x="442" y="63" type="line"/>
      <point x="366" y="63" type="line"/>
      <point x="366" y="368" type="line"/>
      <point x="342" y="368" type="line"/>
      <point x="332" y="88" type="line"/>
      <point x="332" y="63" type="line"/>
      <point x="74" y="63" type="line"/>
      <point x="74" y="69" type="line"/>
      <point x="308" y="574" type="line"/>
      <point x="308" y="579" type="line"/>
      <point x="286" y="589" type="line"/>
      <point x="279" y="589" type="line"/>
      <point x="31" y="50" type="line"/>
      <point x="31" y="46" type="line"/>
    </contour>
  </outline>
</glyph>
<glyph name="greater.tab" format="1">
  <advance width="480"/>
  <outline>
    <contour>
      <point x="64" y="188" type="line"/>
      <point x="437" y="352" type="line"/>
      <point x="437" y="382" type="line"/>
      <point x="61" y="546" type="line"/>
      <point x="61" y="508" type="line"/>
      <point x="389" y="367" type="line"/>
      <point x="64" y="226" type="line"/>
    </contour>
  </outline>
</glyph>
<glyph name="less.tab" format="1">
  <advance width="480"/>
  <outline>
    <contour>
      <point x="414" y="188" type="line"/>
      <point x="414" y="226" type="line"/>
      <point x="90" y="367" type="line"/>
      <point x="417" y="508" type="line"/>
      <point x="417" y="546" type="line"/>
      <point x="44" y="382" type="line"/>
      <point x="44" y="352" type="line"/>
    </contour>
  </outline>
</glyph>
<glyph name="minus.tab" format="1">
  <advance width="480"/>
  <outline>
    <contour>
      <point x="71" y="353" type="line"/>
      <point x="408" y="353" type="line"/>
      <point x="408" y="387" type="line"/>
      <point x="71" y="387" type="line"/>
    </contour>
  </outline>
</glyph>
<glyph name="multiply.tab" format="1">
  <advance width="480"/>
  <outline>
    <contour>
      <point x="96" y="214" type="line"/>
      <point x="239" y="347" type="line"/>
      <point x="382" y="214" type="line"/>
      <point x="407" y="238" type="line"/>
      <point x="264" y="371" type="line"/>
      <point x="407" y="504" type="line"/>
      <point x="382" y="528" type="line"/>
      <point x="239" y="394" type="line"/>
      <point x="96" y="528" type="line"/>
      <point x="72" y="504" type="line"/>
      <point x="214" y="371" type="line"/>
      <point x="72" y="238" type="line"/>
    </contour>
  </outline>
</glyph>
<glyph name="nine.tosf" format="1">
  <advance width="480"/>
  <outline>
    <contour>
      <point x="229" y="592" type="curve" smooth="yes"/>
      <point x="123" y="592"/>
      <point x="52" y="502"/>
      <point x="52" y="368" type="curve" smooth="yes"/>
      <point x="52" y="249"/>
      <point x="119" y="175"/>
      <point x="229" y="175" type="curve" smooth="yes"/>
      <point x="279" y="175"/>
      <point x="338" y="204"/>
      <point x="385" y="251" type="curve"/>
      <point x="380" y="45"/>
      <point x="304" y="-78"/>
      <point x="181" y="-78" type="curve" smooth="yes"/>
      <point x="152" y="-78"/>
      <point x="127" y="-73"/>
      <point x="90" y="-60" type="curve"/>
      <point x="90" y="-96" type="line"/>
      <point x="123" y="-107"/>
      <point x="151" y="-112"/>
      <point x="181" y="-112" type="curve" smooth="yes"/>
      <point x="332" y="-112"/>
      <point x="420" y="31"/>
      <point x="420" y="276" type="curve" smooth="yes"/>
      <point x="420" y="486"/>
      <point x="356" y="592"/>
    </contour>
    <contour>
      <point x="230" y="209" type="curve" smooth="yes"/>
      <point x="140" y="209"/>
      <point x="86" y="269"/>
      <point x="86" y="368" type="curve" smooth="yes"/>
      <point x="86" y="482"/>
      <point x="143" y="558"/>
      <point x="229" y="558" type="curve" smooth="yes"/>
      <point x="333" y="558"/>
      <point x="383" y="471"/>
      <point x="386" y="291" type="curve"/>
      <point x="340" y="240"/>
      <point x="279" y="209"/>
    </contour>
  </outline>
</glyph>
<glyph name="one.denominator" format="1">
  <advance width="238"/>
  <outline>
    <contour>
      <point x="134" y="0" type="line"/>
      <point x="168" y="0" type="line"/>
      <point x="168" y="546" type="line"/>
      <point x="148" y="546" type="line"/>
      <point x="21" y="449" type="line"/>
      <point x="21" y="442" type="line"/>
      <point x="37" y="423" type="line"/>
      <point x="44" y="423" type="line"/>
      <point x="134" y="494" type="line"/>
    </contour>
  </outline>
</glyph>
<glyph name="one.tosf" format="1">
  <advance width="480"/>
  <outline>
    <contour>
      <point x="300" y="0" type="line"/>
      <point x="334" y="0" type="line"/>
      <point x="334" y="566" type="line"/>
      <point x="317" y="566" type="line"/>
      <point x="99" y="465" type="line"/>
      <point x="99" y="461" type="line"/>
      <point x="122" y="439" type="line"/>
      <point x="127" y="439" type="line"/>
      <point x="296" y="514" type="line"/>
      <point x="300" y="514" type="line"/>
    </contour>
  </outline>
</glyph>
<glyph name="paragraph.tab" format="1">
  <advance width="480"/>
  <outline>
    <contour>
      <point x="276" y="0" type="line"/>
      <point x="237" y="0" type="line"/>
      <point x="237" y="266" type="line"/>
      <point x="232" y="265"/>
      <point x="216" y="265"/>
      <point x="209" y="265" type="curve" smooth="yes"/>
      <point x="114" y="265"/>
      <point x="51" y="326"/>
      <point x="51" y="505" type="curve" smooth="yes"/>
      <point x="51" y="684"/>
      <point x="120" y="745"/>
      <point x="220" y="745" type="curve" smooth="yes"/>
      <point x="243" y="745"/>
      <point x="254" y="741"/>
      <point x="276" y="735" type="curve"/>
    </contour>
    <contour>
      <point x="381" y="0" type="line"/>
      <point x="337" y="0" type="line"/>
      <point x="337" y="735" type="line"/>
      <point x="381" y="735" type="line"/>
    </contour>
  </outline>
</glyph>
<glyph name="parenleft.sc" format="1">
  <advance width="242"/>
  <outline>
    <contour>
      <point x="178" y="-125" type="curve"/>
      <point x="210" y="-125" type="line"/>
      <point x="210" y="-122" type="line"/>
      <point x="127" y="-10"/>
      <point x="82" y="128"/>
      <point x="82" y="276" type="curve" smooth="yes"/>
      <point x="82" y="423"/>
      <point x="127" y="562"/>
      <point x="210" y="674" type="curve"/>
      <point x="210" y="677" type="line"/>
      <point x="178" y="677" type="line"/>
      <point x="94" y="563"/>
      <point x="48" y="422"/>
      <point x="48" y="276" type="curve" smooth="yes"/>
      <point x="48" y="130"/>
      <point x="94" y="-11"/>
    </contour>
  </outline>
</glyph>
<glyph name="quotedbl.tab" format="1">
  <advance width="240"/>
  <outline>
    <contour>
      <point x="19" y="808" type="line"/>
      <point x="19" y="480" type="line"/>
      <point x="36" y="480" type="line"/>
      <point x="59" y="804" type="line"/>
      <point x="59" y="808" type="line"/>
    </contour>
    <contour>
      <point x="193" y="808" type="line"/>
      <point x="193" y="480" type="line"/>
      <point x="210" y="480" type="line"/>
      <point x="232" y="804" type="line"/>
      <point x="232" y="808" type="line"/>
    </contour>
  </outline>
</glyph>
<glyph name="seven.tf" format="1">
  <advance width="480"/>
  <outline>
    <contour>
      <point x="139" y="-9" type="line"/>
      <point x="115" y="0" type="line"/>
      <point x="115" y="11" type="line"/>
      <point x="385" y="706" type="line"/>
      <point x="78" y="706" type="line"/>
      <point x="72" y="736" type="line"/>
      <point x="71" y="740" type="line"/>
      <point x="403" y="740" type="line"/>
      <point x="413" y="722" type="line"/>
      <point x="413" y="693" type="line"/>
      <point x="147" y="-2" type="line"/>
    </contour>
  </outline>
</glyph>
<glyph name="seven.tosf" format="1">
  <advance width="480"/>
  <outline>
    <contour>
      <point x="138" y="-166" type="line"/>
      <point x="114" y="-157" type="line"/>
      <point x="114" y="-146" type="line"/>
      <point x="384" y="549" type="line"/>
      <point x="77" y="549" type="line"/>
      <point x="71" y="579" type="line"/>
      <point x="70" y="583" type="line"/>
      <point x="402" y="583" type="line"/>
      <point x="412" y="565" type="line"/>
      <point x="412" y="536" type="line"/>
      <point x="146" y="-159" type="line"/>
    </contour>
  </outline>
</glyph>
<glyph name="six.numerator" format="1">
  <advance width="365"/>
  <outline>
    <contour>
      <point x="192" y="192" type="curve" smooth="yes"/>
      <point x="275" y="192"/>
      <point x="330" y="265"/>
      <point x="330" y="373" type="curve" smooth="yes"/>
      <point x="330" y="472"/>
      <point x="277" y="532"/>
      <point x="191" y="532" type="curve" smooth="yes"/>
      <point x="155" y="532"/>
      <point x="113" y="514"/>
      <point x="78" y="483" type="curve"/>
      <point x="87" y="633"/>
      <point x="142" y="721"/>
      <point x="228" y="721" type="curve" smooth="yes"/>
      <point x="252" y="721"/>
      <point x="273" y="717"/>
      <point x="302" y="706" type="curve"/>
      <point x="302" y="742" type="line"/>
      <point x="274" y="751"/>
      <point x="251" y="755"/>
      <point x="228" y="755" type="curve" smooth="yes"/>
      <point x="112" y="755"/>
      <point x="43" y="638"/>
      <point x="43" y="440" type="curve" smooth="yes"/>
      <point x="43" y="275"/>
      <point x="93" y="192"/>
    </contour>
    <contour>
      <point x="192" y="226" type="curve" smooth="yes"/>
      <point x="114" y="226"/>
      <point x="77" y="296"/>
      <point x="77" y="441" type="curve"/>
      <point x="112" y="476"/>
      <point x="156" y="498"/>
      <point x="191" y="498" type="curve" smooth="yes"/>
      <point x="257" y="498"/>
      <point x="296" y="452"/>
      <point x="296" y="373" type="curve" smooth="yes"/>
      <point x="296" y="284"/>
      <point x="255" y="226"/>
    </contour>
  </outline>
</glyph>
<glyph name="six.tf" format="1">
  <advance width="480"/>
  <outline>
    <contour>
      <point x="252" y="-12" type="curve" smooth="yes"/>
      <point x="358" y="-12"/>
      <point x="429" y="86"/>
      <point x="429" y="232" type="curve" smooth="yes"/>
      <point x="429" y="364"/>
      <point x="361" y="445"/>
      <point x="252" y="445" type="curve" smooth="yes"/>
      <point x="201" y="445"/>
      <point x="143" y="416"/>
      <point x="96" y="369" type="curve"/>
      <point x="105" y="587"/>
      <point x="180" y="718"/>
      <point x="300" y="718" type="curve" smooth="yes"/>
      <point x="331" y="718"/>
      <point x="357" y="713"/>
      <point x="391" y="700" type="curve"/>
      <point x="392" y="736" type="line"/>
      <point x="358" y="747"/>
      <point x="330" y="752"/>
      <point x="300" y="752" type="curve" smooth="yes"/>
      <point x="149" y="752"/>
      <point x="61" y="593"/>
      <point x="61" y="324" type="curve" smooth="yes"/>
      <point x="61" y="101"/>
      <point x="126" y="-12"/>
    </contour>
    <contour>
      <point x="251" y="411" type="curve" smooth="yes"/>
      <point x="341" y="411"/>
      <point x="395" y="344"/>
      <point x="395" y="232" type="curve" smooth="yes"/>
      <point x="395" y="106"/>
      <point x="338" y="22"/>
      <point x="252" y="22" type="curve" smooth="yes"/>
      <point x="146" y="22"/>
      <point x="95" y="120"/>
      <point x="95" y="329" type="curve"/>
      <point x="141" y="379"/>
      <point x="201" y="411"/>
    </contour>
  </outline>
</glyph>
<glyph name="six.tosf" format="1">
  <advance width="480"/>
  <outline>
    <contour>
      <point x="252" y="-12" type="curve" smooth="yes"/>
      <point x="358" y="-12"/>
      <point x="429" y="78"/>
      <point x="429" y="212" type="curve" smooth="yes"/>
      <point x="429" y="331"/>
      <point x="362" y="405"/>
      <point x="252" y="405" type="curve" smooth="yes"/>
      <point x="201" y="405"/>
      <point x="143" y="376"/>
      <point x="95" y="329" type="curve"/>
      <point x="101" y="535"/>
      <point x="177" y="658"/>
      <point x="300" y="658" type="curve" smooth="yes"/>
      <point x="329" y="658"/>
      <point x="354" y="653"/>
      <point x="391" y="640" type="curve"/>
      <point x="392" y="676" type="line"/>
      <point x="358" y="687"/>
      <point x="330" y="692"/>
      <point x="300" y="692" type="curve" smooth="yes"/>
      <point x="149" y="692"/>
      <point x="61" y="549"/>
      <point x="61" y="304" type="curve" smooth="yes"/>
      <point x="61" y="94"/>
      <point x="126" y="-12"/>
    </contour>
    <contour>
      <point x="251" y="371" type="curve" smooth="yes"/>
      <point x="341" y="371"/>
      <point x="395" y="311"/>
      <point x="395" y="212" type="curve" smooth="yes"/>
      <point x="395" y="98"/>
      <point x="338" y="22"/>
      <point x="252" y="22" type="curve" smooth="yes"/>
      <point x="149" y="22"/>
      <point x="97" y="108"/>
      <point x="95" y="289" type="curve"/>
      <point x="141" y="339"/>
      <point x="201" y="371"/>
    </contour>
  </outline>
</glyph>
<glyph name="three.denominator" format="1">
  <advance width="302"/>
  <outline>
    <contour>
      <point x="116" y="-5" type="curve" smooth="yes"/>
      <point x="206" y="-5"/>
      <point x="261" y="49"/>
      <point x="261" y="138" type="curve" smooth="yes"/>
      <point x="261" y="216"/>
      <point x="225" y="265"/>
      <point x="154" y="285" type="curve"/>
      <point x="212" y="304"/>
      <point x="247" y="351"/>
      <point x="247" y="414" type="curve" smooth="yes"/>
      <point x="247" y="501"/>
      <point x="198" y="554"/>
      <point x="119" y="554" type="curve" smooth="yes"/>
      <point x="96" y="554"/>
      <point x="69" y="549"/>
      <point x="37" y="541" type="curve"/>
      <point x="46" y="511" type="line"/>
      <point x="57" y="511" type="line"/>
      <point x="80" y="517"/>
      <point x="100" y="520"/>
      <point x="117" y="520" type="curve" smooth="yes"/>
      <point x="179" y="520"/>
      <point x="213" y="482"/>
      <point x="213" y="414" type="curve" smooth="yes"/>
      <point x="213" y="345"/>
      <point x="166" y="301"/>
      <point x="92" y="301" type="curve" smooth="yes"/>
      <point x="78" y="301" type="line"/>
      <point x="78" y="267" type="line"/>
      <point x="91" y="267" type="line" smooth="yes"/>
      <point x="179" y="267"/>
      <point x="227" y="222"/>
      <point x="227" y="138" type="curve" smooth="yes"/>
      <point x="227" y="70"/>
      <point x="185" y="28"/>
      <point x="116" y="28" type="curve" smooth="yes"/>
      <point x="94" y="28"/>
      <point x="72" y="31"/>
      <point x="53" y="36" type="curve"/>
      <point x="42" y="36" type="line"/>
      <point x="42" y="6" type="line"/>
      <point x="67" y="-1"/>
      <point x="94" y="-5"/>
    </contour>
  </outline>
</glyph>
<glyph name="three.numerator" format="1">
  <advance width="302"/>
  <outline>
    <contour>
      <point x="116" y="195" type="curve" smooth="yes"/>
      <point x="206" y="195"/>
      <point x="261" y="249"/>
      <point x="261" y="338" type="curve" smooth="yes"/>
      <point x="261" y="416"/>
      <point x="225" y="465"/>
      <point x="154" y="485" type="curve"/>
      <point x="212" y="504"/>
      <point x="247" y="551"/>
      <point x="247" y="614" type="curve" smooth="yes"/>
      <point x="247" y="701"/>
      <point x="198" y="754"/>
      <point x="119" y="754" type="curve" smooth="yes"/>
      <point x="96" y="754"/>
      <point x="69" y="749"/>
      <point x="37" y="741" type="curve"/>
      <point x="46" y="711" type="line"/>
      <point x="57" y="711" type="line"/>
      <point x="80" y="717"/>
      <point x="100" y="720"/>
      <point x="117" y="720" type="curve" smooth="yes"/>
      <point x="179" y="720"/>
      <point x="213" y="682"/>
      <point x="213" y="614" type="curve" smooth="yes"/>
      <point x="213" y="545"/>
      <point x="166" y="501"/>
      <point x="92" y="501" type="curve" smooth="yes"/>
      <point x="78" y="501" type="line"/>
      <point x="78" y="467" type="line"/>
      <point x="91" y="467" type="line" smooth="yes"/>
      <point x="179" y="467"/>
      <point x="227" y="422"/>
      <point x="227" y="338" type="curve" smooth="yes"/>
      <point x="227" y="270"/>
      <point x="185" y="228"/>
      <point x="116" y="228" type="curve" smooth="yes"/>
      <point x="94" y="228"/>
      <point x="72" y="231"/>
      <point x="53" y="236" type="curve"/>
      <point x="42" y="236" type="line"/>
      <point x="42" y="206" type="line"/>
      <point x="67" y="199"/>
      <point x="94" y="195"/>
    </contour>
  </outline>
</glyph>
<glyph name="two.tf" format="1">
  <advance width="480"/>
  <outline>
    <contour>
      <point x="67" y="0" type="line"/>
      <point x="405" y="0" type="line"/>
      <point x="405" y="34" type="line"/>
      <point x="101" y="34" type="line"/>
      <point x="101" y="84" type="line" smooth="yes"/>
      <point x="101" y="193"/>
      <point x="141" y="262"/>
      <point x="256" y="352" type="curve" smooth="yes"/>
      <point x="366" y="437"/>
      <point x="404" y="495"/>
      <point x="404" y="581" type="curve" smooth="yes"/>
      <point x="404" y="691"/>
      <point x="343" y="749"/>
      <point x="228" y="749" type="curve" smooth="yes"/>
      <point x="186" y="749"/>
      <point x="141" y="741"/>
      <point x="86" y="723" type="curve"/>
      <point x="96" y="690" type="line"/>
      <point x="157" y="708"/>
      <point x="195" y="715"/>
      <point x="229" y="715" type="curve" smooth="yes"/>
      <point x="320" y="715"/>
      <point x="370" y="667"/>
      <point x="370" y="581" type="curve" smooth="yes"/>
      <point x="370" y="507"/>
      <point x="334" y="453"/>
      <point x="234" y="378" type="curve" smooth="yes"/>
      <point x="113" y="287"/>
      <point x="67" y="204"/>
      <point x="67" y="84" type="curve" smooth="yes"/>
    </contour>
  </outline>
</glyph>
<glyph name="two.tosf" format="1">
  <advance width="480"/>
  <outline>
    <contour>
      <point x="68" y="0" type="line"/>
      <point x="406" y="0" type="line"/>
      <point x="406" y="34" type="line"/>
      <point x="101" y="34" type="line"/>
      <point x="101" y="66" type="line" smooth="yes"/>
      <point x="101" y="151"/>
      <point x="140" y="205"/>
      <point x="257" y="276" type="curve" smooth="yes"/>
      <point x="367" y="343"/>
      <point x="405" y="391"/>
      <point x="405" y="459" type="curve" smooth="yes"/>
      <point x="405" y="551"/>
      <point x="325" y="593"/>
      <point x="241" y="593" type="curve" smooth="yes"/>
      <point x="195" y="593"/>
      <point x="140" y="582"/>
      <point x="87" y="562" type="curve"/>
      <point x="97" y="528" type="line"/>
      <point x="144" y="544"/>
      <point x="195" y="558"/>
      <point x="243" y="558" type="curve" smooth="yes"/>
      <point x="308" y="558"/>
      <point x="371" y="527"/>
      <point x="371" y="459" type="curve" smooth="yes"/>
      <point x="371" y="402"/>
      <point x="336" y="362"/>
      <point x="233" y="301" type="curve" smooth="yes"/>
      <point x="114" y="231"/>
      <point x="68" y="163"/>
      <point x="68" y="66" type="curve" smooth="yes"/>
    </contour>
  </outline>
</glyph>
<glyph name="uni0311.cap" format="1">
  <advance width="366"/>
  <outline>
    <contour>
      <point x="182" y="760" type="move" name="_topUC"/>
    </contour>
    <contour>
      <point x="317" y="826" type="line"/>
      <point x="317" y="908"/>
      <point x="266" y="958"/>
      <point x="182" y="958" type="curve" smooth="yes"/>
      <point x="98" y="958"/>
      <point x="47" y="908"/>
      <point x="47" y="826" type="curve"/>
      <point x="81" y="826" type="line"/>
      <point x="81" y="887"/>
      <point x="119" y="924"/>
      <point x="182" y="924" type="curve" smooth="yes"/>
      <point x="245" y="924"/>
      <point x="283" y="887"/>
      <point x="283" y="826" type="curve"/>
    </contour>
  </outline>
</glyph>
<glyph name="zero.numerator" format="1">
  <advance width="393"/>
  <note>
    546
  </note>
  <outline>
    <contour>
      <point x="197" y="193" type="curve"/>
      <point x="298" y="193"/>
      <point x="350" y="289"/>
      <point x="350" y="473" type="curve" smooth="yes"/>
      <point x="350" y="657"/>
      <point x="298" y="754"/>
      <point x="197" y="754" type="curve" smooth="yes"/>
      <point x="96" y="754"/>
      <point x="43" y="657"/>
      <point x="43" y="473" type="curve" smooth="yes"/>
      <point x="43" y="288"/>
      <point x="96" y="193"/>
    </contour>
    <contour>
      <point x="197" y="227" type="curve"/>
      <point x="117" y="227"/>
      <point x="77" y="310"/>
      <point x="77" y="473" type="curve" smooth="yes"/>
      <point x="77" y="633"/>
      <point x="119" y="720"/>
      <point x="197" y="720" type="curve" smooth="yes"/>
      <point x="274" y="720"/>
      <point x="316" y="633"/>
      <point x="316" y="473" type="curve" smooth="yes"/>
      <point x="316" y="311"/>
      <point x="276" y="227"/>
    </contour>
  </outline>
</glyph>
<glyph name="zero.osf" format="1">
  <advance width="502"/>
  <note>
    600
  </note>
  <outline>
    <contour>
      <point x="251" y="-10" type="curve" smooth="yes"/>
      <point x="386" y="-10"/>
      <point x="456" y="88"/>
      <point x="456" y="289" type="curve" smooth="yes"/>
      <point x="456" y="491"/>
      <point x="386" y="590"/>
      <point x="251" y="590" type="curve" smooth="yes"/>
      <point x="116" y="590"/>
      <point x="46" y="491"/>
      <point x="46" y="289" type="curve" smooth="yes"/>
      <point x="46" y="87"/>
      <point x="116" y="-10"/>
    </contour>
    <contour>
      <point x="251" y="24" type="curve" smooth="yes"/>
      <point x="137" y="24"/>
      <point x="80" y="108"/>
      <point x="80" y="289" type="curve" smooth="yes"/>
      <point x="80" y="467"/>
      <point x="140" y="556"/>
      <point x="251" y="556" type="curve" smooth="yes"/>
      <point x="362" y="556"/>
      <point x="422" y="467"/>
      <point x="422" y="289" type="curve" smooth="yes"/>
      <point x="422" y="110"/>
      <point x="364" y="24"/>
    </contour>
  </outline>
</glyph>
<glyph name="zero.tosf" format="1">
  <advance width="480"/>
  <note>
    600
  </note>
  <outline>
    <contour>
      <point x="239" y="-10" type="curve" smooth="yes"/>
      <point x="363" y="-10"/>
      <point x="427" y="88"/>
      <point x="427" y="289" type="curve" smooth="yes"/>
      <point x="427" y="491"/>
      <point x="363" y="590"/>
      <point x="239" y="590" type="curve" smooth="yes"/>
      <point x="116" y="590"/>
      <point x="52" y="491"/>
      <point x="52" y="289" type="curve" smooth="yes"/>
      <point x="52" y="87"/>
      <point x="116" y="-10"/>
    </contour>
    <contour>
      <point x="239" y="24" type="curve" smooth="yes"/>
      <point x="137" y="24"/>
      <point x="86" y="108"/>
      <point x="86" y="289" type="curve" smooth="yes"/>
      <point x="86" y="467"/>
      <point x="140" y="556"/>
      <point x="239" y="556" type="curve" smooth="yes"/>
      <point x="339" y="556"/>
      <point x="393" y="467"/>
      <point x="393" y="289" type="curve" smooth="yes"/>
      <point x="393" y="110"/>
      <point x="341" y="24"/>
    </contour>
  </outline>
</glyph>
